<svg width="40" height="40" viewBox="0 0 40 40" fill="none" xmlns="http://www.w3.org/2000/svg">
<g clip-path="url(#clip0_251_277)">
<path d="M35.3125 0H4.6875C2.10281 0 0 2.10281 0 4.6875V35.3125C0 37.8972 2.10281 40 4.6875 40H35.3125C37.8972 40 40 37.8972 40 35.3125V4.6875C40 2.10281 37.8972 0 35.3125 0ZM36.875 35.3125C36.875 36.1741 36.1741 36.875 35.3125 36.875H26.4062V24.1406H31.2336L32.0312 19.2969H26.4062V15.9375C26.4062 14.6113 27.4238 13.5938 28.75 13.5938H31.9531V8.75H28.75C24.7716 8.75 21.5642 11.9727 21.5642 15.9511V19.2969H16.875V24.1406H21.5642V36.875H4.6875C3.82594 36.875 3.125 36.1741 3.125 35.3125V4.6875C3.125 3.82594 3.82594 3.125 4.6875 3.125H35.3125C36.1741 3.125 36.875 3.82594 36.875 4.6875V35.3125Z" fill="white"/>
</g>
<defs>
<clipPath id="clip0_251_277">
<rect width="40" height="40" fill="white"/>
</clipPath>
</defs>
</svg>
