<svg width="40" height="40" viewBox="0 0 40 40" fill="none" xmlns="http://www.w3.org/2000/svg">
<path d="M19.9995 0C11.8802 0 5.27393 6.60629 5.27393 14.7264C5.27393 16.8444 5.70744 18.8667 6.56178 20.7375C10.2436 28.7941 17.3026 37.3003 19.3789 39.7151C19.5345 39.8956 19.7613 39.9996 19.9999 39.9996C20.2386 39.9996 20.4654 39.8956 20.6209 39.7151C22.6964 37.3007 29.7554 28.7949 33.4384 20.7375C34.2932 18.8667 34.7263 16.8444 34.7263 14.7264C34.7255 6.60629 28.1192 0 19.9995 0ZM19.9995 22.3753C15.7818 22.3753 12.3502 18.9436 12.3502 14.726C12.3502 10.5079 15.7818 7.07623 19.9995 7.07623C24.2172 7.07623 27.6488 10.5079 27.6488 14.726C27.6493 18.9436 24.2176 22.3753 19.9995 22.3753Z" fill="white"/>
</svg>
