<svg width="40" height="40" viewBox="0 0 40 40" fill="none" xmlns="http://www.w3.org/2000/svg">
<g clip-path="url(#clip0_251_317)">
<path d="M37.7994 2.20032C36.333 0.733532 34.5662 0 32.5004 0H7.5002C5.43442 0 3.66763 0.733532 2.20057 2.20032C0.733776 3.66738 0.000244141 5.43408 0.000244141 7.49995V32.4999C0.000244141 34.5656 0.733776 36.3324 2.20057 37.7995C3.66763 39.2666 5.43442 40.0001 7.5002 40.0001H32.5001C34.5659 40.0001 36.3327 39.2666 37.7991 37.7995C39.2662 36.3324 39.9997 34.5656 39.9997 32.4999V7.49995C39.9996 5.43408 39.2661 3.66711 37.7994 2.20032ZM30.5991 15.3908C30.6166 15.547 30.6254 15.781 30.6254 16.094C30.6254 17.5524 30.4125 19.0151 29.9874 20.4817C29.5622 21.949 28.9111 23.3553 28.034 24.7006C27.1578 26.0459 26.1118 27.2355 24.8966 28.2684C23.6812 29.3009 22.2231 30.126 20.5213 30.7418C18.8204 31.3586 16.9972 31.667 15.0529 31.667C12.0323 31.667 9.23716 30.8505 6.66761 29.2192C7.08427 29.271 7.51853 29.2972 7.96967 29.2972C10.4871 29.2972 12.7528 28.516 14.7667 26.953C13.5864 26.9362 12.5315 26.5719 11.6028 25.8593C10.6738 25.1476 10.0272 24.2449 9.66257 23.1511C10.1138 23.2204 10.4523 23.2548 10.678 23.2548C11.0599 23.2548 11.5027 23.1855 12.006 23.047C10.7387 22.8035 9.67115 22.1748 8.80308 21.1591C7.93483 20.1434 7.50084 18.9846 7.50084 17.6827V17.6306C8.42072 18.0643 9.28879 18.2899 10.1049 18.3076C8.52497 17.2483 7.73507 15.7294 7.73507 13.7503C7.73507 12.778 7.98664 11.8579 8.49013 10.9898C9.86151 12.674 11.5285 14.0193 13.49 15.0262C15.4517 16.033 17.5526 16.5975 19.7921 16.7189C19.7054 16.3891 19.6619 15.9722 19.6619 15.4689C19.6619 13.9583 20.1958 12.6694 21.2636 11.6016C22.3311 10.5339 23.6203 9.99982 25.1305 9.99982C26.7281 9.99982 28.0565 10.5729 29.1154 11.7188C30.3134 11.4931 31.4771 11.0502 32.6052 10.3908C32.1713 11.7272 31.3635 12.7429 30.1835 13.4374C31.3116 13.2809 32.3616 12.9859 33.3337 12.5519C32.6046 13.663 31.6929 14.6092 30.5991 15.3908Z" fill="white"/>
</g>
<defs>
<clipPath id="clip0_251_317">
<rect width="40" height="40" fill="white"/>
</clipPath>
</defs>
</svg>
