<svg width="545" height="400" viewBox="0 0 545 400" fill="none" xmlns="http://www.w3.org/2000/svg">
<path d="M351.557 194.847C338.4 192.472 325.402 187.218 312.682 183.089C327.245 172.576 327.28 149.648 317.286 136.068C311.398 128.066 309.744 118.624 303.312 110.7C296.847 102.736 287.03 102.904 285.916 92.652C283.686 72.1437 270.524 51.919 249.523 71.7223C242.959 77.9137 242.431 87.257 239.82 95.334C235.567 108.493 227.07 105.744 218.342 115.596C211.457 123.369 203.124 134.478 193.838 127.298C188.532 123.195 183.252 116.987 177 114.361C163.625 108.74 135.934 118.451 133.429 134.694C131.7 145.899 138.167 160.933 140.165 171.984C129.658 179.302 119.158 186.629 108.773 194.119C89.9537 207.691 67.2251 221.31 54.7834 241.462C45.0804 257.177 42.6514 275.546 35.0777 292.159C26.6377 310.668 26.9007 328.629 49.7007 334.666C88.2247 344.866 139.146 306.912 169.574 288.122C190.457 275.227 210.46 257.802 232.357 246.907C249.133 238.56 282.219 243.157 300.741 242.441C321.326 241.647 343.738 244.367 360.372 229.727C376.116 215.869 372.169 198.561 351.557 194.847C356.463 195.731 350.287 194.618 351.557 194.847Z" fill="white"/>
<path d="M345.986 202.57C337.893 200.295 329.878 197.753 321.865 195.214C314.157 192.772 306.401 190.098 298.562 187.804C301.759 184.647 303.996 181.106 305.447 177.341C320.381 169.725 317.724 143.166 304.05 135.629C302.731 121.303 293.996 108.173 279.095 106.405C278.849 105.148 278.609 103.931 278.426 102.81C277.096 94.6504 276.85 85.1827 274.609 77.3051C271.972 68.0307 256.564 74.6411 253.455 80.5924C250.794 85.6847 249.871 92.5344 248.101 98.0097C246.575 102.732 244.997 107.439 243.397 112.137C235.733 113.236 230.02 115.539 224.857 121.367C218.254 128.82 211.156 134.185 202.856 139.663C201.576 140.509 200.304 141.366 199.026 142.215C193.637 138.087 188.195 134.025 182.908 129.768C180.024 127.446 177.099 123.842 173.632 122.385C166.606 119.434 156.699 123.616 150.578 127.007C145.098 130.043 140.633 133.492 142.327 139.992C145.413 151.838 147.561 163.892 149.718 175.937C124.672 193.385 99.3804 210.876 75.7964 230.241C66.2627 238.069 59.7387 248.542 55.319 260.052C53.6634 264.365 48.133 283.323 46.3867 287.9C43.8104 294.653 40.1354 301.019 38.14 307.997C33.7357 323.4 53.29 328.27 64.842 327.554C77.8707 326.748 90.5817 320.703 102.207 315.224C144.907 295.097 184.931 268.631 223.879 241.98C230.312 237.577 231.682 237.371 240.865 236.814C267.774 235.183 294.727 233.738 321.677 233.063C332.66 232.787 341.512 232.941 350.86 226.19C355.265 223.009 366.521 213.559 360.502 207.265C357.352 203.971 350.08 203.721 345.986 202.57Z" fill="#68182B"/>
<path d="M299.063 192.125C302.546 193.157 306.016 194.23 309.482 195.318C313.286 196.512 312.216 196.508 309.441 198.12C306.873 199.613 304.05 200.532 301.365 199.757C296.177 198.261 290.929 196.981 285.667 195.778C278.911 194.232 272.081 193.011 265.21 192.108C262.66 191.772 258.287 191.778 262.139 190.212C265.721 188.757 269.316 187.611 272.833 186.979C281.051 185.502 291.324 189.83 299.063 192.125Z" fill="#D5D5D5"/>
<path d="M261.075 136.855C263.417 135.523 267.73 132.414 270.147 130.678C279.072 136.344 286.356 144.561 289.504 154.809C292.202 163.589 291.509 172.635 289.199 181.343C288.272 184.827 288.402 185.096 285.847 184.543C284.444 184.239 283.036 183.955 281.626 183.705C281.151 183.622 280.681 183.574 280.209 183.516C281.393 165.956 275.27 147.79 261.075 136.855Z" fill="#CEFFFF"/>
<path d="M307.082 171.292C308.885 160.271 305.034 148.051 298.454 137.704C311.503 140.168 315.917 161.804 307.082 171.292Z" fill="#FAC135"/>
<path d="M300.044 134.089C298.666 133.757 297.207 133.604 295.671 133.649C291.122 127.516 285.658 122.298 279.996 118.733C280.483 116.149 280.259 113.223 279.799 110.325C291.534 112.225 298.464 122.732 300.044 134.089Z" fill="#FAC135"/>
<path d="M278.614 122.393C291.687 130.963 303.878 149.284 303.699 165.811C303.629 172.103 301.206 179.071 296.487 184.332C294.191 186.891 295.104 186.806 292.338 186.086C291.679 185.915 291.018 185.749 290.356 185.586C293.738 174.926 295.025 163.505 291.246 152.745C287.766 142.835 280.754 134.867 272.083 129.179C274.57 127.196 277.084 124.902 278.614 122.393Z" fill="#FF801D"/>
<path d="M255.238 87.5592C256.427 83.4642 258.018 79.8715 262.697 77.9715C268.145 75.7578 270.162 76.0968 271.161 81.2648C271.684 83.9732 271.879 86.7802 272.31 89.5068C273.513 97.1155 275.173 104.698 275.94 112.368C276.138 114.343 276.731 117.261 276.013 119.19C274.941 122.069 270.616 125.171 268.332 127.12C263.704 131.067 258.642 134.185 253.177 136.479C256.59 123.76 260.646 111.194 263.267 98.2768C263.798 95.6632 265.86 89.2768 264.011 86.7628C262.286 84.4165 259.93 86.7402 257.525 88.2492C254.878 89.9082 254.925 88.6362 255.238 87.5592Z" fill="#00EBED"/>
<path d="M247.6 111.702C249.702 105.494 251.767 99.2713 253.714 93.0126C253.864 92.5336 254.001 92.0546 254.136 91.577C255.332 91.6556 256.755 91.5986 257.782 90.7373C261.54 87.5863 262.79 88.4356 262.628 91.169C262.4 95.0193 260.324 101.039 259.872 102.95C257.451 113.2 254.39 123.274 251.621 133.429C251.033 135.581 250.033 136.887 248.629 137.779C245.294 139.896 242.83 140.37 240.962 139.259C237.916 137.441 241.145 130.114 242.186 127.249C244.06 122.091 245.84 116.899 247.6 111.702Z" fill="#FAC135"/>
<path d="M229.952 121.517C233.413 118.323 237.555 117.013 241.993 116.223C241.515 117.607 241.049 118.995 240.566 120.377C240.086 121.745 239.322 123.657 238.547 125.799C235.065 125.075 231.271 124.133 227.624 123.948C228.366 123.103 229.128 122.278 229.952 121.517Z" fill="#CEFFFF"/>
<path d="M222.262 130.146C225.771 126.586 226.353 125.835 230.867 126.552C233.219 126.926 235.586 127.509 237.788 127.984C235.687 134.322 234.234 141.682 239.527 143.267C242.692 144.216 246.379 143.14 252.089 141.036C254.408 140.182 256.664 139.19 258.857 138.063C272.055 147.67 278.105 163.661 278.047 179.564C278.033 183.523 277.529 183.085 273.775 183.452C269.976 183.825 266.261 184.873 262.627 186.279C260.666 174.177 257.409 162.17 248.739 153.065C239.497 143.362 225.437 139.971 212.455 138.085C215.953 135.695 219.315 133.137 222.262 130.146Z" fill="#FF801D"/>
<path d="M184.242 135.74C188.022 138.685 191.855 141.562 195.666 144.453C193.213 146.09 190.762 147.727 188.318 149.375C186.399 147.185 184.305 145.143 182.278 143.058C180.827 141.565 180.575 141.875 181.455 140.03C182.191 138.485 183.143 137.048 184.242 135.74Z" fill="#D5D5D5"/>
<path d="M175.706 128.756C177.499 130.331 179.336 131.859 181.198 133.358C179.043 135.824 176.133 139.769 176.9 142.476C177.435 144.358 179.817 146.035 181.139 147.386C182.479 148.756 183.81 150.135 185.097 151.555C180.048 154.973 175.012 158.411 169.991 161.869C168.44 149.592 165.237 137.725 157.488 127.923C163.638 125.325 170.374 124.071 175.706 128.756Z" fill="#00EBED"/>
<path d="M147.868 146.29C147.216 143.408 144.884 138.431 145.84 135.636C146.783 132.884 151.518 130.796 153.897 129.593C153.898 129.592 153.9 129.592 153.9 129.592C162.088 139.43 165.072 151.798 166.441 164.311C162.599 166.966 158.764 169.63 154.935 172.303C154.347 172.712 153.758 173.123 153.171 173.532C151.542 164.426 149.91 155.311 147.868 146.29Z" fill="#FAC135"/>
<path d="M56.4521 268.524C56.8644 267.204 57.2931 265.89 57.7451 264.585C59.5081 259.496 61.7051 254.571 64.3657 249.943C70.6237 252.183 77.1171 254.744 83.8181 254.785C88.8364 254.817 93.9234 253.282 98.5564 256.414C103.408 259.693 102.798 266.669 99.8171 271.131C91.5594 283.488 74.6361 280.086 61.6634 275.345C57.5224 273.832 55.2454 272.378 56.4521 268.524Z" fill="#CEFFFF"/>
<path d="M72.692 322.159C59.2733 324.627 37.1503 324.649 42.05 308.321C43.3993 303.826 45.444 299.594 47.381 295.324C49.563 290.52 51.355 289.466 56.1477 290.045C69.5213 291.657 79.7803 300.848 79.5937 314.458C79.5183 320.055 77.9 321.202 72.692 322.159Z" fill="#FAC135"/>
<path d="M345.702 224.891C339.837 228.066 333.445 228.991 326.005 229.128C303.987 229.534 281.972 230.71 259.985 231.89C250.685 232.39 222.937 234.848 210.246 236.206C209.69 236.266 205.832 236.836 203.189 237.059C198.521 237.453 200.591 234.903 203.557 231.187C208.739 225.173 209.072 225.214 216.911 224.53C239.011 222.6 261.122 220.794 283.252 219.252C294.758 218.449 306.27 217.69 317.789 217.097C327.373 216.604 337.417 216.248 346.229 219.964C350.732 221.863 349.472 222.85 345.702 224.891Z" fill="#FAC135"/>
<path d="M355.033 217.403C353.283 219.244 352.74 218.873 350.058 217.495C342.363 213.543 333.576 212.831 324.864 212.982C312.852 213.189 300.815 214.22 288.831 215.03C263.725 216.728 238.644 218.787 213.577 220.989C221.153 214.123 229.538 208.167 238.351 202.93C241.536 201.038 244.969 198.964 248.547 196.947C253.494 194.156 252.734 194.583 256.883 194.981C269.848 196.224 282.601 198.789 295.211 202.054C299.573 203.183 302.807 204.987 307.091 203.355C310.568 202.03 313.764 199.95 316.618 197.567C322.789 199.527 328.956 201.5 335.15 203.383C340.84 205.114 346.551 206.793 352.322 208.242C354.947 208.902 358.043 208.719 358.134 212.179C358.178 213.824 356.486 215.874 355.033 217.403Z" fill="#00EBED"/>
<path d="M247.386 193.565C251.168 191.636 255.04 189.567 259.007 187.791C257.232 176.492 254.515 164.022 246.024 155.778C238.009 147.998 227.314 144.539 216.492 142.589C208.358 141.124 209.051 140.29 202.194 144.847C193.558 150.586 177.399 161.408 170.041 166.485C169.858 166.702 169.623 166.866 169.35 166.961C163.109 171.27 156.882 175.596 150.675 179.952C126.186 197.138 101.233 214.188 78.1457 233.254C74.6317 236.155 71.5693 239.459 68.8843 243.045C66.2863 246.519 68.4007 247.418 71.977 248.633C75.867 249.953 79.8637 251.006 83.8183 250.947C89.6753 250.861 94.563 249.773 100.069 252.856C106.723 256.581 107.247 264.916 104.124 271.29C94.965 289.977 69.318 282.743 54.0957 276.432C53.164 279.625 52.2187 282.814 51.146 285.958C70.6853 285.48 86.1427 299.437 83.008 319.235C96.921 314.243 110.197 307.256 123.132 300.215C157.057 281.745 189.603 260.683 221.52 238.93C215.356 239.753 209.195 240.563 203.008 240.934C193.134 241.524 196.411 234.028 200.843 228.473C213.586 213.689 230.086 202.39 247.386 193.565ZM123.031 258.505C119.739 260.253 117.196 260.616 116.069 256.772C114.892 252.751 113.207 246.767 115.017 243.897C117.6 239.801 124.99 237.652 129.139 235.327C142.407 227.891 155.482 220.114 168.33 211.974C192.676 196.549 216.332 180.098 239.934 163.567C242.611 161.693 244.37 162.736 245.609 165.201C246.959 167.885 248.309 170.569 249.659 173.251C251.021 175.961 250.911 177.013 248.581 178.643C207.903 207.131 166.938 235.175 123.031 258.505Z" fill="#FF5671"/>
<path d="M244.129 177.088C205.654 203.992 166.766 230.473 125.445 252.838C120.95 255.272 119.876 256.383 118.862 251.06C117.651 244.707 121.137 244.095 125.96 241.468C131.907 238.228 137.788 234.871 143.644 231.471C155.831 224.396 167.792 216.937 179.633 209.3C200.064 196.124 220.002 182.2 239.909 168.254C241.922 166.843 242.412 167.369 243.202 168.94C243.889 170.304 244.575 171.668 245.262 173.031C246.768 176.025 246.318 175.557 244.129 177.088Z" fill="#D5D5D5"/>
<path d="M334.492 211.334C326.989 209.595 319.128 209.681 311.476 209.723C302.348 209.772 293.223 210.155 284.112 210.696C275.673 211.196 267.251 211.922 258.834 212.687C253.574 213.164 248.35 214.237 243.066 214.374C239.676 214.462 235.131 214.391 232.48 211.955C230.909 210.511 231.211 208.61 232.362 206.661C225.739 210.959 219.414 215.698 213.577 220.988C238.644 218.787 263.724 216.728 288.831 215.03C300.814 214.22 312.852 213.189 324.864 212.981C332.162 212.855 339.504 213.362 346.221 215.843C342.644 213.66 338.643 212.297 334.492 211.334Z" fill="#00AFB3"/>
<path d="M262.378 122.424C261.053 117.398 263.271 111.264 264.483 106.392C265.295 103.133 267.47 92.7208 264.712 88.8921C265.024 91.8941 263.681 96.2341 263.267 98.2764C260.646 111.194 256.59 123.759 253.177 136.478C258.642 134.184 263.704 131.067 268.332 127.119C269.259 126.328 270.521 125.342 271.767 124.263C267.524 126.263 263.511 126.723 262.378 122.424Z" fill="#00AFB3"/>
<path d="M159.672 130.936C165.85 140.113 168.595 150.822 169.991 161.869C173.871 159.196 177.768 156.546 181.665 153.898C179.327 154.165 176.995 153.999 174.855 153.084C171.465 151.636 170.298 147.499 168.931 144.46C166.66 139.413 163.965 134.417 159.672 130.936Z" fill="#00AFB3"/>
<path d="M256.625 83.7894C258.601 81.9484 261.112 80.6121 263.625 79.9211C269.276 78.3657 270.406 87.1234 271.473 90.7964C272.344 93.7938 273.22 96.7987 274.092 99.8084C273.487 96.3731 272.853 92.9424 272.31 89.5071C271.879 86.7804 271.684 83.9731 271.161 81.2651C270.162 76.0971 268.145 75.7581 262.696 77.9717C259.533 79.2561 257.796 81.3251 256.625 83.7894Z" fill="#88F9F9"/>
<path d="M352.322 208.242C346.551 206.793 340.841 205.114 335.15 203.383C328.956 201.5 322.789 199.527 316.618 197.567C315.201 198.75 313.699 199.857 312.121 200.836C322.37 200.836 331.716 204.598 341.746 206.815C347.241 208.031 354.993 209.133 357.454 214.322C357.876 213.582 358.152 212.847 358.134 212.179C358.043 208.719 354.947 208.902 352.322 208.242Z" fill="#88F9F9"/>
<path d="M166.254 126.338C169.349 127.208 172.012 129.884 174.264 132.06C175.81 133.554 177.193 135.192 178.536 136.865C179.357 135.576 180.334 134.346 181.198 133.358C179.335 131.86 177.499 130.331 175.706 128.756C172.087 125.577 167.822 125.137 163.532 125.992C164.407 125.993 165.297 126.07 166.254 126.338Z" fill="#88F9F9"/>
<path d="M262.627 186.278C266.26 184.872 269.975 183.824 273.775 183.451C277.529 183.084 278.033 183.523 278.047 179.563C278.084 169.528 275.681 159.461 270.591 150.981C272.773 157.814 273.588 164.957 271.591 172.145C270.827 174.893 268.931 178.122 265.756 178.196C263.482 178.249 261.5 175.938 260.151 174.392C260.121 174.357 260.096 174.32 260.066 174.285C261.164 178.204 261.971 182.234 262.627 186.278Z" fill="#EF6200"/>
<path d="M290.109 149.935C290.511 150.859 290.909 151.785 291.246 152.746C295.025 163.505 293.738 174.926 290.356 185.586C291.018 185.749 291.678 185.916 292.338 186.087C295.104 186.806 294.191 186.891 296.487 184.333C297.596 183.096 298.567 181.759 299.421 180.364C299.446 174.78 298.472 169.133 296.659 163.544C295.098 158.734 292.718 154.256 290.109 149.935Z" fill="#EF6200"/>
<path d="M228.483 129.616C231.352 129.45 234.152 130.051 236.943 130.765C237.201 129.83 237.486 128.897 237.788 127.984C235.587 127.509 233.219 126.925 230.867 126.551C226.353 125.835 225.771 126.585 222.262 130.145C221.922 130.491 221.559 130.812 221.208 131.146C223.573 130.309 226.021 129.758 228.483 129.616Z" fill="#FACB1A"/>
<path d="M278.614 122.393C277.787 123.751 276.665 125.043 275.422 126.26C281.521 127.55 287.004 130.659 291.743 134.788C287.824 129.768 283.281 125.452 278.614 122.393Z" fill="#FACB1A"/>
<path d="M114.508 291.531C105.501 296.319 93.1577 305.448 82.0231 305.4C83.3941 309.54 83.8057 314.197 83.0081 319.235C96.9211 314.243 110.197 307.256 123.132 300.215C157.057 281.745 189.603 260.683 221.52 238.93C215.798 239.693 210.078 240.432 204.338 240.833C186.876 251.631 169.092 261.912 151.116 271.827C138.981 278.521 126.745 285.027 114.508 291.531Z" fill="#DF3F58"/>
<path d="M246.024 155.778C238.009 147.998 227.314 144.539 216.492 142.589C208.358 141.124 209.051 140.29 202.194 144.847C193.558 150.586 177.399 161.408 170.041 166.485C169.858 166.702 169.623 166.866 169.35 166.961C163.109 171.27 156.882 175.596 150.675 179.952C126.186 197.138 101.233 214.188 78.1457 233.254C77.109 234.11 76.1234 235.011 75.1624 235.934C80.183 232.169 85.3977 228.667 90.6257 225.177C99.2934 219.388 107.622 213.111 116.185 207.17C134.038 194.787 151.813 182.279 169.724 169.982C178.365 164.049 187.006 157.775 196.172 152.672C205.524 147.464 215.073 146.772 225.228 149.879C234.839 152.82 244.365 156.724 251.114 164.468C252.285 165.811 253.336 167.238 254.311 168.717C252.397 163.89 249.775 159.421 246.024 155.778Z" fill="#FF9780"/>
<path d="M74.0894 283.496C80.8587 285.003 87.8564 285.281 94.4921 283.056C104.818 279.592 112.504 267.402 106.874 257.038C102.602 249.172 94.0784 249.364 85.6817 250.89C90.7361 250.674 95.1577 250.106 100.069 252.856C106.723 256.581 107.247 264.916 104.124 271.29C95.5017 288.882 72.2707 283.502 56.8771 277.546C61.7964 280.812 68.7637 282.311 74.0894 283.496Z" fill="#FF9780"/>
<path d="M295.671 133.649C296.038 133.638 296.386 133.675 296.744 133.687C295.834 130.692 294.301 127.832 292.344 125.217C289.644 121.613 285.085 117.039 280.244 115.699C280.236 116.742 280.179 117.766 279.996 118.733C285.658 122.298 291.122 127.515 295.671 133.649Z" fill="#EE9E2B"/>
<path d="M307.082 171.292C308.236 170.052 309.159 168.601 309.871 167.017C309.831 158.686 306.973 150.294 301.87 143.747C306.286 152.625 308.544 162.352 307.082 171.292Z" fill="#EE9E2B"/>
<path d="M317.789 217.097C306.27 217.69 294.758 218.449 283.252 219.252C261.122 220.794 239.011 222.6 216.912 224.53C209.919 225.14 208.891 225.186 205.075 229.453C211.472 226.902 218.356 226.428 225.363 225.898C238.322 224.919 251.287 224.014 264.253 223.153C279.871 222.115 295.494 221.144 311.123 220.301C317.949 219.933 324.777 219.6 331.606 219.295C335.388 219.127 339.582 218.767 343.655 219.013C335.49 216.328 326.453 216.651 317.789 217.097Z" fill="#EE9E2B"/>
<path d="M250.01 130.917C249.334 132.664 248.795 134.272 247.473 135.674C245.793 137.454 243.428 138.426 241.016 139.285C242.878 140.357 245.325 139.877 248.629 137.78C250.033 136.888 251.033 135.581 251.621 133.429C254.39 123.274 257.451 113.2 259.872 102.951C260.323 101.039 262.4 95.0197 262.628 91.1693C262.648 90.8283 262.647 90.517 262.62 90.239C262.399 93.1997 261.226 96.8397 260.906 98.1387C259.37 104.379 257.347 110.505 255.256 116.578C253.598 121.39 251.846 126.171 250.01 130.917Z" fill="#EE9E2B"/>
<path d="M64.6553 315.854C60.9443 318.41 56.124 319.288 51.727 319.644C49.6267 319.815 47.2153 319.9 44.8527 319.712C50.9533 324.354 63.7503 323.803 72.692 322.159C77.9 321.202 79.5183 320.055 79.594 314.458C79.7387 303.919 73.605 296.048 64.6253 292.276C70.5197 299.456 73.641 309.664 64.6553 315.854Z" fill="#EE9E2B"/>
<path d="M161.069 152.516C161.68 158.045 161.247 163.522 159.933 168.83C162.102 167.323 164.268 165.811 166.44 164.31C165.21 153.067 162.664 141.947 156.222 132.668C158.321 139.188 160.305 145.604 161.069 152.516Z" fill="#EE9E2B"/>
<path d="M203.189 237.059C205.832 236.837 209.691 236.266 210.246 236.206C222.937 234.848 250.685 232.39 259.985 231.89C281.972 230.71 303.987 229.535 326.005 229.128C332.271 229.013 337.789 228.32 342.879 226.214C334.905 227.471 326.809 227.574 318.566 227.467C305.615 227.298 292.703 227.842 279.778 228.633C266.739 229.431 253.642 229.975 240.626 231.042C233.759 231.605 226.935 232.67 220.105 233.553C216.871 233.972 213.64 234.372 210.387 234.621C207.445 234.847 203.577 235.319 201.981 233.199C200.045 235.778 199.425 237.376 203.189 237.059Z" fill="#FBE134"/>
<path d="M242.186 127.249C241.617 128.813 240.403 131.704 239.908 134.305C240.356 133.217 240.818 132.13 241.291 131.036C243.513 125.896 245.529 120.658 247.632 115.468C249.793 110.132 251.828 104.778 253.435 99.2496C254.238 96.4836 255.168 93.7563 256.583 91.3486C255.783 91.5976 254.914 91.6283 254.135 91.5773C254.001 92.055 253.863 92.534 253.714 93.013C251.766 99.2716 249.701 105.494 247.599 111.702C245.84 116.899 244.06 122.091 242.186 127.249Z" fill="#FBE134"/>
<path d="M296.059 122.119C292.613 116.082 287.149 111.515 279.799 110.325C279.916 111.062 280.016 111.8 280.095 112.535C284.282 113.257 288.187 115.863 291.565 118.281C293.177 119.436 294.661 120.734 296.059 122.119Z" fill="#FBE134"/>
<path d="M151.349 163.513C150.974 158.519 150.669 153.523 150.116 148.543C149.624 144.115 147.477 137.163 149.03 132.231C147.558 133.207 146.282 134.347 145.84 135.636C144.884 138.431 147.216 143.408 147.868 146.29C149.161 152.002 150.282 157.752 151.349 163.513Z" fill="#FBE134"/>
<path d="M41.5351 314.464C42.7171 309.269 45.6217 304.268 47.8484 299.621C50.3244 294.456 54.2594 291.993 58.8427 290.489C57.9591 290.308 57.0627 290.155 56.1474 290.045C51.3547 289.466 49.5627 290.52 47.3807 295.324C45.4437 299.594 43.3991 303.826 42.0497 308.321C41.3344 310.706 41.2091 312.732 41.5351 314.464Z" fill="#FBE134"/>
<path d="M298.454 137.704C298.995 138.555 299.509 139.422 300.012 140.296C305.087 142.559 308.314 146.273 310.689 150.777C308.872 144.338 304.633 138.871 298.454 137.704Z" fill="#FBE134"/>
<path d="M264.604 134.59C263.278 135.495 262.016 136.32 261.075 136.855C275.27 147.79 281.393 165.956 280.209 183.515C280.681 183.573 281.151 183.621 281.626 183.705C282.12 183.792 282.611 183.903 283.104 183.998C283.673 179.842 283.672 175.588 283.376 171.685C282.318 157.738 275.415 143.698 264.604 134.59Z" fill="#A9CDDD"/>
<path d="M57.6154 264.979C57.2127 266.155 56.8231 267.337 56.4521 268.524C55.2451 272.378 57.5224 273.832 61.6637 275.346C74.6364 280.087 91.5597 283.488 99.8174 271.131C101.614 268.442 102.538 264.844 101.936 261.688C98.0897 268.066 90.1601 272.239 82.3941 272.825C74.9857 273.384 62.9831 271.464 57.6154 264.979Z" fill="#A9CDDD"/>
<path d="M238.547 125.799C238.742 125.261 238.936 124.737 239.125 124.232C236.955 124.143 234.778 124.26 232.587 124.579C234.617 124.947 236.63 125.4 238.547 125.799Z" fill="#A9CDDD"/>
<path d="M301.365 199.757C303.394 200.343 305.502 199.959 307.52 199.092C293.627 194.047 278.89 189.906 264.148 189.442C263.478 189.691 262.808 189.94 262.139 190.212C258.287 191.778 262.66 191.772 265.211 192.108C272.082 193.011 278.911 194.233 285.667 195.778C290.929 196.981 296.176 198.261 301.365 199.757Z" fill="#BEBEBE"/>
<path d="M181.455 140.029C180.575 141.875 180.827 141.564 182.278 143.057C184.305 145.142 186.399 147.184 188.318 149.374C189.219 148.767 190.124 148.165 191.026 147.56C190.005 146.55 188.959 145.564 187.956 144.574C186.002 142.647 184.093 140.686 182.198 138.711C181.944 139.148 181.673 139.573 181.455 140.029Z" fill="#BEBEBE"/>
<path d="M245.262 173.031C245.221 172.951 245.181 172.87 245.14 172.789C242.864 174.505 240.508 176.122 238.25 177.754C232.671 181.785 227.012 185.703 221.32 189.571C209.51 197.597 197.476 205.292 185.371 212.863C163.565 226.499 141.513 239.514 119.058 252C120.026 256.235 121.236 255.117 125.445 252.838C166.766 230.473 205.654 203.992 244.129 177.088C246.318 175.557 246.768 176.025 245.262 173.031Z" fill="#BEBEBE"/>
<g filter="url(#filter0_d_145_511)">
<path d="M370 190.942C419.689 192.397 447.5 71.9424 532 53" stroke="white" stroke-width="2" stroke-linecap="round"/>
</g>
<g filter="url(#filter1_d_145_511)">
<path d="M185 103.993C213.525 104.836 229.491 34.9847 278 24" stroke="white" stroke-width="2" stroke-linecap="round"/>
</g>
<defs>
<filter id="filter0_d_145_511" x="361" y="41.9998" width="184" height="159.956" filterUnits="userSpaceOnUse" color-interpolation-filters="sRGB">
<feFlood flood-opacity="0" result="BackgroundImageFix"/>
<feColorMatrix in="SourceAlpha" type="matrix" values="0 0 0 0 0 0 0 0 0 0 0 0 0 0 0 0 0 0 127 0" result="hardAlpha"/>
<feOffset dx="2"/>
<feGaussianBlur stdDeviation="5"/>
<feComposite in2="hardAlpha" operator="out"/>
<feColorMatrix type="matrix" values="0 0 0 0 1 0 0 0 0 1 0 0 0 0 1 0 0 0 0.66 0"/>
<feBlend mode="normal" in2="BackgroundImageFix" result="effect1_dropShadow_145_511"/>
<feBlend mode="normal" in="SourceGraphic" in2="effect1_dropShadow_145_511" result="shape"/>
</filter>
<filter id="filter1_d_145_511" x="176" y="12.9998" width="115" height="102" filterUnits="userSpaceOnUse" color-interpolation-filters="sRGB">
<feFlood flood-opacity="0" result="BackgroundImageFix"/>
<feColorMatrix in="SourceAlpha" type="matrix" values="0 0 0 0 0 0 0 0 0 0 0 0 0 0 0 0 0 0 127 0" result="hardAlpha"/>
<feOffset dx="2"/>
<feGaussianBlur stdDeviation="5"/>
<feComposite in2="hardAlpha" operator="out"/>
<feColorMatrix type="matrix" values="0 0 0 0 1 0 0 0 0 1 0 0 0 0 1 0 0 0 0.66 0"/>
<feBlend mode="normal" in2="BackgroundImageFix" result="effect1_dropShadow_145_511"/>
<feBlend mode="normal" in="SourceGraphic" in2="effect1_dropShadow_145_511" result="shape"/>
</filter>
</defs>
</svg>
