<svg width="520" height="173" viewBox="0 0 520 173" fill="none" xmlns="http://www.w3.org/2000/svg">
<path d="M0 21.5906C0 30.4272 7.16344 37.5906 16 37.5906C24.8366 37.5906 32 30.4272 32 21.5906C32 12.7541 24.8366 5.59062 16 5.59062C7.16344 5.59062 0 12.7541 0 21.5906ZM488 157C488 165.837 495.163 173 504 173C512.837 173 520 165.837 520 157C520 148.163 512.837 141 504 141C495.163 141 488 148.163 488 157ZM16.7354 24.4991C18.3 24.1035 19.8775 23.7118 21.4678 23.3241L20.0469 17.4948C18.44 17.8865 16.8458 18.2824 15.2646 18.6821L16.7354 24.4991ZM31.0858 21.0668C34.2582 20.3507 37.476 19.6522 40.7372 18.9735L39.5145 13.0994C36.2203 13.785 32.9697 14.4906 29.7647 15.2141L31.0858 21.0668ZM50.376 17.0503C53.5713 16.4401 56.8042 15.8499 60.0731 15.2813L59.0449 9.37004C55.7433 9.9443 52.478 10.5405 49.2506 11.1568L50.376 17.0503ZM69.8243 13.6678C73.0419 13.1625 76.2912 12.6791 79.5706 12.2192L78.7373 6.27736C75.4251 6.74188 72.1433 7.23012 68.8935 7.74041L69.8243 13.6678ZM89.3301 10.9322C92.5735 10.5316 95.8437 10.1547 99.1394 9.80296L98.5027 3.83683C95.1737 4.19208 91.8706 4.57278 88.5946 4.9774L89.3301 10.9322ZM108.957 8.8379C112.205 8.54607 115.474 8.2794 118.765 8.03927L118.329 2.05518C115.004 2.29778 111.701 2.56718 108.42 2.86199L108.957 8.8379ZM128.616 7.40459C131.88 7.22221 135.163 7.06661 138.464 6.93908L138.233 0.94355C134.897 1.07243 131.58 1.22966 128.281 1.41394L128.616 7.40459ZM148.304 6.64442C151.579 6.5749 154.87 6.5337 158.176 6.52201L158.154 0.52205C154.813 0.53386 151.487 0.575513 148.177 0.645766L148.304 6.64442ZM168.021 6.57511C171.291 6.62208 174.574 6.69863 177.869 6.80589L178.064 0.809071C174.733 0.700608 171.414 0.623218 168.108 0.575728L168.021 6.57511ZM187.736 7.21838C190.997 7.38504 194.268 7.58249 197.549 7.81182L197.967 1.82643C194.649 1.59445 191.34 1.39475 188.042 1.2262L187.736 7.21838ZM207.375 8.59292C210.636 8.88357 213.905 9.20645 217.181 9.56263L217.829 3.59779C214.514 3.23736 211.207 2.91067 207.908 2.61661L207.375 8.59292ZM226.953 10.7225C230.205 11.1411 233.462 11.5933 236.725 12.0801L237.61 6.14579C234.308 5.65299 231.01 5.19527 227.719 4.77158L226.953 10.7225ZM246.433 13.6296C249.661 14.1787 252.893 14.7624 256.127 15.3819L257.256 9.48897C253.98 8.86165 250.708 8.27052 247.439 7.71456L246.433 13.6296ZM265.778 17.3356C268.976 18.0182 272.176 18.7366 275.376 19.4915L276.754 13.6518C273.511 12.8869 270.27 12.1592 267.031 11.4678L265.778 17.3356ZM284.949 21.8599C288.11 22.6787 291.271 23.5341 294.431 24.4271L296.062 18.6532C292.86 17.7482 289.657 16.8812 286.453 16.0516L284.949 21.8599ZM303.88 27.212C307.005 28.171 310.128 29.1678 313.247 30.2031L315.137 24.5085C311.974 23.4588 308.808 22.4483 305.641 21.4761L303.88 27.212ZM322.55 33.4086C325.631 34.5102 328.709 35.6503 331.782 36.83L333.932 31.2286C330.815 30.0321 327.694 28.8758 324.569 27.7588L322.55 33.4086ZM340.914 40.4582C343.944 41.7034 346.969 42.9881 349.988 44.3132L352.399 38.819C349.336 37.4748 346.268 36.1716 343.194 34.9086L340.914 40.4582ZM358.926 48.363C361.892 49.7495 364.851 51.1761 367.803 52.6436L370.474 47.2708C367.478 45.7819 364.476 44.3344 361.467 42.9277L358.926 48.363ZM376.54 57.1188C379.432 58.6443 382.317 60.2102 385.192 61.8173L388.119 56.5797C385.201 54.9489 382.274 53.3598 379.34 51.8118L376.54 57.1188ZM393.712 66.7149C396.523 68.3766 399.326 70.0789 402.118 71.8224L405.296 66.733C402.462 64.9636 399.618 63.2361 396.765 61.5497L393.712 66.7149ZM410.399 77.1333C413.123 78.9274 415.836 80.7621 418.54 82.638L421.96 77.7087C419.217 75.805 416.463 73.9432 413.699 72.1226L410.399 77.1333ZM426.561 88.3495C429.191 90.2713 431.811 92.2334 434.42 94.2365L438.074 89.4779C435.428 87.4454 432.769 85.4545 430.1 83.5045L426.561 88.3495ZM442.163 100.332C444.697 102.376 447.218 104.46 449.728 106.585L453.605 102.006C451.059 99.8506 448.501 97.7364 445.931 95.6628L442.163 100.332ZM457.177 113.045C459.61 115.205 462.03 117.405 464.437 119.645L468.524 115.253C466.083 112.981 463.628 110.75 461.161 108.559L457.177 113.045ZM471.579 126.447C473.908 128.718 476.225 131.027 478.529 133.376L482.813 129.176C480.478 126.794 478.129 124.452 475.767 122.15L471.579 126.447ZM485.352 140.494C487.578 142.869 489.791 145.282 491.99 147.735L496.457 143.729C494.229 141.244 491.986 138.798 489.729 136.39L485.352 140.494ZM498.486 155.14C499.562 156.393 500.634 157.656 501.702 158.929L506.298 155.071C505.215 153.782 504.129 152.502 503.039 151.232L498.486 155.14Z" fill="white"/>
</svg>
