<svg width="403" height="421" viewBox="0 0 403 421" fill="none" xmlns="http://www.w3.org/2000/svg">
<path d="M32.1074 401.467C30.5246 392.773 22.1939 387.008 13.5003 388.591C4.80661 390.174 -0.957905 398.505 0.624863 407.198C2.20763 415.892 10.5383 421.656 19.232 420.074C27.9256 418.491 33.6901 410.16 32.1074 401.467ZM402.724 14.1341C401.141 5.44047 392.81 -0.32405 384.116 1.25872C375.423 2.84149 369.658 11.1722 371.241 19.8658C372.824 28.5595 381.154 34.324 389.848 32.7412C398.542 31.1584 404.306 22.8278 402.724 14.1341ZM384.01 16.5946C383.783 18.2581 383.55 19.9166 383.31 21.57L389.248 22.4301C389.49 20.7602 389.726 19.0853 389.955 17.4054L384.01 16.5946ZM381.798 31.4295C381.266 34.7169 380.708 37.9838 380.126 41.2299L386.032 42.2894C386.62 39.0097 387.183 35.7094 387.721 32.3886L381.798 31.4295ZM378.277 51.0463C377.633 54.3078 376.964 57.548 376.27 60.7666L382.135 62.0319C382.836 58.7788 383.513 55.5042 384.163 52.2082L378.277 51.0463ZM374.073 70.5209C373.314 73.7538 372.53 76.9643 371.72 80.1524L377.535 81.6297C378.354 78.4061 379.147 75.1602 379.914 71.8919L374.073 70.5209ZM369.166 89.8247C368.289 93.0255 367.386 96.203 366.457 99.3571L372.213 101.052C373.152 97.8616 374.066 94.6478 374.953 91.4107L369.166 89.8247ZM363.538 108.926C362.539 112.091 361.513 115.233 360.462 118.349L366.147 120.267C367.211 117.113 368.249 113.935 369.26 110.732L363.538 108.926ZM357.171 127.789C356.047 130.912 354.897 134.01 353.721 137.082L359.324 139.228C360.515 136.118 361.679 132.982 362.817 129.821L357.171 127.789ZM350.051 146.377C348.8 149.452 347.523 152.5 346.219 155.522L351.728 157.898C353.049 154.838 354.342 151.752 355.609 148.639L350.051 146.377ZM342.165 164.649C340.785 167.67 339.378 170.663 337.945 173.628L343.347 176.239C344.799 173.235 346.224 170.203 347.622 167.143L342.165 164.649ZM333.505 182.562C331.994 185.521 330.456 188.452 328.892 191.354L334.174 194.201C335.759 191.26 337.318 188.29 338.849 185.291L333.505 182.562ZM324.066 200.072C322.423 202.962 320.753 205.823 319.058 208.654L324.205 211.737C325.924 208.867 327.617 205.967 329.282 203.037L324.066 200.072ZM313.846 217.131C312.071 219.945 310.27 222.728 308.443 225.48L313.441 228.799C315.294 226.008 317.121 223.186 318.921 220.332L313.846 217.131ZM302.849 233.694C300.943 236.423 299.011 239.12 297.053 241.786L301.888 245.338C303.874 242.634 305.834 239.898 307.768 237.13L302.849 233.694ZM291.082 249.714C289.046 252.35 286.985 254.953 284.899 257.523L289.557 261.304C291.674 258.696 293.765 256.055 295.83 253.381L291.082 249.714ZM278.55 265.152C276.39 267.683 274.205 270.181 271.995 272.645L276.462 276.651C278.705 274.15 280.922 271.615 283.114 269.046L278.55 265.152ZM265.271 279.958C262.993 282.375 260.69 284.758 258.363 287.106L262.624 291.33C264.987 288.946 267.325 286.527 269.637 284.074L265.271 279.958ZM251.276 294.08C248.883 296.377 246.466 298.638 244.025 300.864L248.069 305.297C250.547 303.037 253 300.741 255.43 298.41L251.276 294.08ZM236.59 307.476C234.084 309.648 231.556 311.784 229.004 313.884L232.818 318.517C235.408 316.384 237.976 314.215 240.52 312.01L236.59 307.476ZM221.246 320.106C218.632 322.148 215.996 324.154 213.338 326.123L216.909 330.944C219.608 328.945 222.285 326.908 224.94 324.834L221.246 320.106ZM205.279 331.934C202.563 333.84 199.826 335.709 197.068 337.54L200.388 342.538C203.188 340.679 205.967 338.781 208.725 336.845L205.279 331.934ZM188.725 342.928C185.915 344.692 183.085 346.418 180.236 348.106L183.294 353.268C186.188 351.554 189.061 349.801 191.915 348.01L188.725 342.928ZM171.623 353.061C168.729 354.677 165.816 356.255 162.884 357.795L165.674 363.107C168.651 361.543 171.609 359.941 174.548 358.3L171.623 353.061ZM154.026 362.303C151.054 363.768 148.065 365.195 145.058 366.583L147.573 372.03C150.626 370.621 153.661 369.172 156.679 367.685L154.026 362.303ZM135.981 370.633C132.938 371.945 129.879 373.217 126.805 374.451L129.039 380.02C132.161 378.767 135.267 377.475 138.356 376.143L135.981 370.633ZM117.534 378.036C114.43 379.191 111.31 380.308 108.176 381.385L110.127 387.059C113.308 385.965 116.475 384.832 119.627 383.659L117.534 378.036ZM98.734 384.498C95.5768 385.496 92.4057 386.454 89.2214 387.373L90.8854 393.138C94.1176 392.205 97.3365 391.232 100.541 390.22L98.734 384.498ZM79.6357 390.011C76.4324 390.85 73.2166 391.65 69.9889 392.41L71.3649 398.251C74.6407 397.479 77.9045 396.667 81.1557 395.816L79.6357 390.011ZM60.2864 394.571C57.0444 395.251 53.7912 395.892 50.5273 396.494L51.6152 402.394C54.9271 401.784 58.2284 401.133 61.5184 400.443L60.2864 394.571ZM40.7341 398.176C37.4633 398.698 34.1826 399.18 30.8926 399.623L31.6932 405.569C35.031 405.12 38.3596 404.63 41.6783 404.102L40.7341 398.176ZM21.0262 400.831C19.3772 401.012 17.7261 401.185 16.073 401.347L16.6592 407.318C18.3362 407.153 20.0111 406.979 21.6839 406.794L21.0262 400.831Z" fill="white"/>
</svg>
