<svg width="466" height="347" viewBox="0 0 466 347" fill="none" xmlns="http://www.w3.org/2000/svg">
<path d="M434 16.3149C434 25.1515 441.163 32.3149 450 32.3149C458.837 32.3149 466 25.1515 466 16.3149C466 7.47838 458.837 0.314941 450 0.314941C441.163 0.314941 434 7.47838 434 16.3149ZM0 331C0 339.837 7.16344 347 16 347C24.8366 347 32 339.837 32 331C32 322.164 24.8366 315 16 315C7.16344 315 0 322.164 0 331ZM18.7611 332.173C19.4139 330.637 20.0689 329.108 20.7263 327.586L15.2179 325.207C14.556 326.74 13.8963 328.28 13.2389 329.827L18.7611 332.173ZM24.6972 318.538C26.0298 315.55 27.3713 312.59 28.7215 309.659L23.2718 307.149C21.9113 310.103 20.5599 313.084 19.2175 316.094L24.6972 318.538ZM32.9318 300.667C34.3475 297.692 35.7724 294.748 37.2064 291.833L31.8225 289.184C30.377 292.123 28.9409 295.091 27.5142 298.088L32.9318 300.667ZM41.6037 283.04C43.1057 280.087 44.6172 277.164 46.1381 274.272L40.8278 271.48C39.294 274.396 37.7699 277.343 36.2555 280.321L41.6037 283.04ZM50.7383 265.672C52.3295 262.746 53.9305 259.854 55.5412 256.993L50.313 254.049C48.6879 256.935 47.0726 259.854 45.4675 262.805L50.7383 265.672ZM60.402 248.508C62.0716 245.644 63.7511 242.813 65.4403 240.015L60.3039 236.913C58.5985 239.738 56.9033 242.596 55.2182 245.487L60.402 248.508ZM70.5792 231.653C72.3294 228.855 74.0896 226.092 75.8596 223.363L70.8255 220.098C69.0377 222.855 67.2599 225.646 65.4926 228.471L70.5792 231.653ZM81.2833 215.151C83.1195 212.422 84.9656 209.728 86.8217 207.069L81.9017 203.634C80.0258 206.322 78.1602 209.044 76.305 211.802L81.2833 215.151ZM92.5359 199.035C94.463 196.377 96.4002 193.755 98.3473 191.169L93.5542 187.56C91.5851 190.175 89.6263 192.826 87.678 195.514L92.5359 199.035ZM104.356 183.344C106.378 180.761 108.411 178.215 110.454 175.707L105.802 171.918C103.734 174.456 101.678 177.032 99.6317 179.645L104.356 183.344ZM116.759 168.12C118.881 165.617 121.013 163.154 123.155 160.729L118.658 156.757C116.489 159.212 114.331 161.706 112.183 164.239L116.759 168.12ZM129.757 153.41C131.981 150.995 134.215 148.621 136.46 146.285L132.134 142.128C129.86 144.494 127.596 146.899 125.344 149.345L129.757 153.41ZM143.356 139.264C145.684 136.945 148.022 134.667 150.37 132.43L146.231 128.086C143.851 130.354 141.481 132.663 139.121 135.013L143.356 139.264ZM157.556 125.735C159.989 123.52 162.431 121.347 164.883 119.215L160.947 114.687C158.46 116.849 155.983 119.053 153.516 121.299L157.556 125.735ZM172.352 112.875C174.888 110.772 177.434 108.713 179.989 106.696L176.271 101.986C173.679 104.033 171.096 106.123 168.523 108.256L172.352 112.875ZM187.731 100.733C190.368 98.7524 193.014 96.8151 195.67 94.9206L192.185 90.0363C189.49 91.9593 186.804 93.9255 184.127 95.9358L187.731 100.733ZM203.702 89.338C206.426 87.4939 209.16 85.6934 211.901 83.9356L208.663 78.8845C205.879 80.6692 203.104 82.4971 200.338 84.3693L203.702 89.338ZM220.219 78.7492C223.022 77.0497 225.834 75.3935 228.653 73.7799L225.672 68.5725C222.81 70.2111 219.955 71.8928 217.108 73.6185L220.219 78.7492ZM237.237 69.01C240.12 67.4555 243.01 65.944 245.908 64.4747L243.195 59.1234C240.252 60.6154 237.317 62.1502 234.389 63.7288L237.237 69.01ZM254.717 60.1476C257.679 58.7387 260.647 57.3725 263.623 56.0482L261.183 50.5667C258.162 51.9114 255.147 53.2987 252.139 54.7293L254.717 60.1476ZM272.614 52.1799C275.646 50.9199 278.685 49.7019 281.729 48.5252L279.565 42.9288C276.475 44.1234 273.391 45.3599 270.312 46.6391L272.614 52.1799ZM290.912 45.1047C293.996 43.9987 297.085 42.9337 300.179 41.9086L298.292 36.2131C295.153 37.2533 292.017 38.3342 288.886 39.4568L290.912 45.1047ZM309.532 38.9346C312.664 37.9799 315.8 37.0648 318.939 36.1885L317.326 30.4094C314.141 31.2984 310.96 32.2267 307.782 33.1953L309.532 38.9346ZM328.421 33.6606C331.597 32.8531 334.777 32.084 337.958 31.3522L336.614 25.5049C333.388 26.2468 330.164 27.0267 326.942 27.8456L328.421 33.6606ZM347.537 29.2623C350.748 28.5991 353.961 27.9727 357.175 27.3822L356.09 21.481C352.834 22.0794 349.578 22.7141 346.323 23.3863L347.537 29.2623ZM366.847 25.7122C370.08 25.1895 373.313 24.702 376.547 24.2483L375.713 18.3065C372.439 18.7659 369.164 19.2597 365.89 19.7891L366.847 25.7122ZM386.29 22.983C389.545 22.5939 392.799 22.2381 396.052 21.9145L395.458 15.944C392.166 16.2714 388.873 16.6315 385.578 17.0254L386.29 22.983ZM405.827 21.0377C409.098 20.7759 412.367 20.5456 415.633 20.3457L415.266 14.3569C411.963 14.5591 408.657 14.792 405.348 15.0568L405.827 21.0377ZM425.445 19.8351C428.719 19.6944 431.991 19.5831 435.258 19.5003L435.106 13.5022C431.804 13.586 428.498 13.6984 425.187 13.8407L425.445 19.8351ZM445.093 19.3352C446.73 19.3217 448.366 19.3149 450 19.3149V13.3149C448.349 13.3149 446.697 13.3217 445.043 13.3354L445.093 19.3352Z" fill="white"/>
</svg>
