<svg width="523" height="250" viewBox="0 0 523 250" fill="none" xmlns="http://www.w3.org/2000/svg">
<path d="M24.739 29.9678C32.3788 25.5273 34.9724 15.7343 30.5319 8.09449C26.0913 0.454694 16.2983 -2.13884 8.65851 2.30167C1.01871 6.74219 -1.57482 16.5352 2.86569 24.175C7.30621 31.8148 17.0992 34.4084 24.739 29.9678ZM514.898 247.056C522.538 242.615 525.131 232.822 520.691 225.182C516.25 217.542 506.457 214.949 498.817 219.389C491.178 223.83 488.584 233.623 493.025 241.263C497.465 248.903 507.258 251.496 514.898 247.056ZM506.626 230.231C504.913 230.364 503.207 230.493 501.505 230.616L501.94 236.6C503.651 236.476 505.368 236.347 507.09 236.213L506.626 230.231ZM491.362 231.304C487.99 231.516 484.639 231.709 481.31 231.884L481.625 237.876C484.975 237.7 488.346 237.505 491.738 237.292L491.362 231.304ZM471.109 232.367C467.731 232.509 464.376 232.632 461.043 232.735L461.23 238.733C464.585 238.628 467.962 238.505 471.361 238.362L471.109 232.367ZM450.855 232.994C447.463 233.061 444.095 233.108 440.75 233.134L440.797 239.134C444.166 239.107 447.558 239.061 450.973 238.993L450.855 232.994ZM430.602 233.153C427.201 233.139 423.824 233.103 420.471 233.046L420.369 239.045C423.748 239.102 427.15 239.138 430.576 239.153L430.602 233.153ZM410.357 232.808C406.951 232.706 403.571 232.581 400.216 232.434L399.954 238.429C403.336 238.577 406.744 238.702 410.177 238.806L410.357 232.808ZM390.13 231.922C386.726 231.725 383.348 231.504 379.997 231.261L379.562 237.245C382.943 237.491 386.35 237.713 389.783 237.912L390.13 231.922ZM369.938 230.453C366.542 230.154 363.173 229.831 359.831 229.484L359.211 235.451C362.584 235.802 365.985 236.128 369.412 236.43L369.938 230.453ZM349.802 228.358C346.421 227.951 343.068 227.518 339.743 227.06L338.924 233.004C342.283 233.467 345.67 233.904 349.084 234.315L349.802 228.358ZM329.75 225.594C326.392 225.071 323.062 224.521 319.762 223.945L318.73 229.856C322.067 230.438 325.433 230.994 328.827 231.522L329.75 225.594ZM309.816 222.114C306.488 221.468 303.19 220.795 299.922 220.095L298.665 225.962C301.972 226.67 305.308 227.351 308.674 228.004L309.816 222.114ZM290.041 217.874C286.751 217.099 283.493 216.297 280.264 215.466L278.769 221.276C282.038 222.118 285.336 222.93 288.665 223.714L290.041 217.874ZM270.468 212.832C267.215 211.92 263.993 210.978 260.801 210.007L259.055 215.747C262.288 216.731 265.552 217.685 268.848 218.609L270.468 212.832ZM251.148 206.95C247.933 205.891 244.749 204.802 241.597 203.682L239.589 209.336C242.785 210.471 246.013 211.576 249.272 212.649L251.148 206.95ZM232.135 200.194C228.968 198.984 225.834 197.742 222.731 196.468L220.453 202.019C223.601 203.311 226.781 204.571 229.993 205.799L232.135 200.194ZM213.461 192.53C210.361 191.168 207.294 189.773 204.258 188.346L201.706 193.776C204.787 195.224 207.901 196.64 211.046 198.023L213.461 192.53ZM195.18 183.937C192.166 182.425 189.185 180.881 186.235 179.304L183.407 184.596C186.403 186.197 189.43 187.765 192.49 189.3L195.18 183.937ZM177.382 174.424C174.45 172.757 171.551 171.058 168.681 169.326L165.58 174.462C168.494 176.221 171.44 177.947 174.417 179.64L177.382 174.424ZM160.116 163.999C157.275 162.181 154.465 160.329 151.685 158.444L148.318 163.41C151.141 165.324 153.996 167.205 156.881 169.053L160.116 163.999ZM143.413 152.675C140.676 150.712 137.968 148.716 135.289 146.688L131.667 151.471C134.387 153.531 137.137 155.558 139.917 157.551L143.413 152.675ZM127.323 140.491C124.694 138.391 122.093 136.258 119.52 134.093L115.657 138.684C118.269 140.882 120.909 143.047 123.578 145.179L127.323 140.491ZM111.879 127.497C109.36 125.268 106.869 123.006 104.405 120.713L100.318 125.106C102.818 127.432 105.346 129.727 107.901 131.989L111.879 127.497ZM97.0942 113.745C94.689 111.396 92.3094 109.017 89.9546 106.606L85.6628 110.799C88.0502 113.243 90.4631 115.656 92.9024 118.038L97.0942 113.745ZM82.9819 99.3024C80.6866 96.8423 78.4152 94.3521 76.1671 91.832L71.6897 95.8262C73.9672 98.3792 76.2687 100.902 78.5949 103.396L82.9819 99.3024ZM69.529 84.2262C67.3465 81.6705 65.1861 79.0858 63.0472 76.4723L58.404 80.2725C60.569 82.9178 62.7563 85.5346 64.9664 88.1226L69.529 84.2262ZM56.7177 68.5762C54.6448 65.9363 52.5923 63.2687 50.5595 60.5736L45.7693 64.1867C47.8252 66.9123 49.9014 69.6108 51.9986 72.2817L56.7177 68.5762ZM44.5427 52.4382C42.5687 49.7166 40.6134 46.9683 38.6762 44.1937L33.7566 47.6286C35.7141 50.4321 37.6903 53.2097 39.6857 55.961L44.5427 52.4382ZM32.9617 35.8561C31.082 33.0627 29.2194 30.244 27.3732 27.4L22.3406 30.667C24.2044 33.5381 26.0853 36.3845 27.9837 39.2058L32.9617 35.8561ZM21.9359 18.8769C21.0376 17.4442 20.1432 16.0054 19.2526 14.5606L14.145 17.7089C15.0435 19.1667 15.946 20.6184 16.8525 22.0642L21.9359 18.8769Z" fill="white"/>
</svg>
