<svg width="201" height="201" viewBox="0 0 201 201" fill="none" xmlns="http://www.w3.org/2000/svg">
<path d="M135.759 128.103C135.756 128.098 135.755 128.095 135.752 128.089C135.641 127.876 135.57 127.741 135.515 127.636C135.577 127.757 135.661 127.916 135.751 128.088C134.408 125.519 132.937 123.015 131.367 120.577C133.258 118.246 134.788 115.637 136.074 112.93C138.529 107.762 140.338 102.165 140.927 96.458C142.04 85.7025 138.082 74.4701 129.726 67.4103C121.279 60.2743 108.602 58.7458 98.0619 61.0124C92.464 62.2172 86.9808 64.4893 82.33 67.8517C81.369 68.5454 80.4485 69.29 79.5689 70.0844C77.8327 68.9803 76.0719 67.9127 74.2528 66.9472C71.7474 65.6169 69.1257 64.4814 66.3809 63.7443C56.5741 61.1121 46.8528 65.2686 45.8915 76.3269C45.7062 78.4481 45.8917 80.5551 46.3618 82.6281C47.1935 86.2944 48.0302 87.2602 46.7598 90.7982C45.0062 95.6835 45.3359 101.219 47.8516 105.781C50.3865 110.377 54.9695 113.668 60.1336 114.604C61.6282 114.875 64.8438 114.237 65.7619 115.299C65.0676 117.914 64.9337 120.673 65.4056 123.339C67.2369 133.709 77.9616 140.462 88.0998 137.272C87.5714 144.242 91.4273 151.038 97.6394 154.222C100.518 155.696 103.78 156.347 107.005 156.134C110.7 155.888 114.759 152.65 117.985 153.518C124.76 155.341 133.247 154.007 137.116 147.49C140.601 141.619 138.724 133.781 135.759 128.103Z" fill="white"/>
<path d="M131.839 130.136C130.034 126.684 127.981 123.354 125.762 120.129C129.868 116.328 132.475 110.781 134.294 105.63C136.675 98.8872 137.624 91.5804 135.606 84.6314C133.258 76.5505 127.684 69.4109 119.568 66.607C112.508 64.1675 104.678 63.8063 97.4584 65.695C91.1199 67.3535 84.4875 70.6315 80.2099 75.7686C80.0514 75.6652 79.898 75.5542 79.7394 75.4507C75.7654 72.863 71.5405 70.1188 67.0316 68.5605C63.0962 67.1997 57.55 66.32 53.9919 69.0576C50.709 71.5819 49.7805 76.377 50.4055 80.2892C50.8478 83.0659 51.8893 85.7473 53.0794 88.3083C49.4801 93.0586 48.926 99.6052 52.3348 104.655C55.5056 109.354 61.4566 111.569 66.9144 109.936C66.9508 109.925 66.9786 109.908 67.0135 109.896C67.5362 110.538 68.0597 111.179 68.5906 111.81C69.3021 112.656 70.0333 113.479 70.7736 114.295C68.4652 119.622 69.4675 125.893 73.7042 130.01C77.8067 133.995 84.1611 134.794 89.1506 132.037C89.1686 132.027 89.1806 132.015 89.1976 132.005C90.4463 133.022 91.7148 134.017 93.0075 134.98C92.9705 135.063 92.9335 135.147 92.9084 135.242C91.4229 140.744 93.7957 146.631 98.5792 149.675C103.768 152.978 110.375 152.208 115.035 148.389C115.175 148.275 115.273 148.131 115.346 147.975C118.024 149.017 120.865 149.922 123.751 149.927C128.176 149.934 133.151 147.647 134.195 143.012C135.156 138.744 133.818 133.922 131.839 130.136Z" fill="#68182B"/>
<path d="M55.2896 72.28C55.2933 72.2808 55.2952 72.2844 55.2992 72.2849C57.1507 72.7356 58.8798 73.6842 60.6582 74.7251C63.227 76.2275 65.6748 77.9355 68.0698 79.6977C74.4939 84.4274 80.5674 89.648 86.4933 94.9824C93.1937 101.014 99.6947 107.272 105.981 113.732C111.617 119.523 117.122 125.47 122.191 131.766C124.073 134.106 125.899 136.504 127.539 139.022C128.568 140.599 129.59 142.305 130.197 143.938C129.685 144.68 128.965 145.312 127.959 145.763C127.447 145.992 126.934 146.155 126.42 146.29C125.976 145.033 125.312 143.829 124.656 142.709C123.25 140.307 121.609 138.044 119.917 135.839C115.195 129.688 109.976 123.921 104.628 118.312C98.4262 111.807 91.9857 105.524 85.3493 99.4628C79.362 93.9934 73.2166 88.6678 66.748 83.7718C64.1978 81.8414 61.5993 79.9639 58.8817 78.274C57.234 77.2488 55.5248 76.2798 53.7224 75.5413C54.0052 74.3337 54.5179 73.1686 55.2896 72.28Z" fill="#00EBED"/>
<path d="M60.9994 70.6082C65.4264 70.8734 69.2843 72.9714 73.0457 75.1404C85.5883 82.3707 96.5289 91.8612 106.73 102.044C113.063 108.365 118.765 115.636 123.764 123.042C126.196 126.645 128.945 130.538 130.278 134.714C130.922 136.729 131.46 139.175 131.164 141.32C130.875 140.774 130.574 140.236 130.269 139.72C128.816 137.265 127.124 134.951 125.382 132.695C120.538 126.423 115.194 120.536 109.723 114.809C103.404 108.195 96.8493 101.8 90.0986 95.6266C83.9849 90.0357 77.7132 84.5867 71.1167 79.569C68.5279 77.5999 65.8901 75.6841 63.1348 73.953C61.2956 72.7976 59.3848 71.7051 57.3515 70.9205C58.5053 70.5468 59.8033 70.5366 60.9994 70.6082Z" fill="#FAC135"/>
<path d="M55.1358 103.013C52.8253 99.5909 52.6795 95.1328 54.7233 91.6086C57.561 97.0543 61.0117 102.216 64.7824 107.09C61.115 107.671 57.2579 106.16 55.1358 103.013Z" fill="#FF2E60"/>
<path d="M75.9684 127.684C73.0759 124.874 72.0974 120.693 73.2311 116.921C75.8164 119.596 78.5082 122.166 81.1797 124.767L82.7202 126.267C83.9382 127.451 85.2009 128.594 86.4857 129.716C82.9393 131.157 78.7548 130.39 75.9684 127.684Z" fill="#FF2E60"/>
<path d="M100.145 146.831C96.8661 144.745 95.2509 140.794 95.8503 137.032C98.3388 138.775 100.886 140.431 103.47 141.988C106.256 143.669 109.121 145.244 112.086 146.596C108.553 149.077 103.807 149.163 100.145 146.831Z" fill="#FF2E60"/>
<path d="M119.11 145.859C115.716 144.851 112.493 143.296 109.381 141.625C102.147 137.741 95.3041 132.995 89.068 127.658C87.6684 126.461 86.3042 125.225 84.9842 123.941C81.9847 121.021 78.9304 118.149 75.9953 115.165C70.2623 109.334 65.2311 102.742 60.8941 95.8173C58.8783 92.5998 56.9846 89.2682 55.4904 85.7735C54.6744 83.8681 53.866 81.7829 53.5615 79.6774C53.3891 78.4734 53.5085 77.3853 56.4015 79.0548C58.9324 80.5164 61.3424 82.1848 63.6986 83.9084C69.9957 88.5155 75.9444 93.6112 81.7451 98.8244C88.3325 104.743 94.7194 110.888 100.892 117.238C106.403 122.907 111.785 128.735 116.732 134.907C118.577 137.212 120.363 139.575 121.964 142.057C122.388 142.713 122.799 143.378 123.186 144.056C124.084 145.639 123.759 146.806 121.539 146.434C120.732 146.299 119.923 146.101 119.11 145.859Z" fill="#FAC135"/>
<path d="M125.562 115.55C126.394 114.447 127.14 113.256 127.79 112.129C129.583 109.02 130.984 105.69 131.98 102.243C133.798 95.9497 134.055 89.6894 131.826 83.4782C130.488 79.7479 128.242 76.3737 125.333 73.6828C122.674 71.2237 119.439 69.769 115.944 68.9492C109.146 67.3563 102.489 67.3293 95.8236 69.5713C92.1075 70.8217 88.0658 72.7574 84.956 75.4603C82.7383 77.3879 83.2649 77.8213 85.032 79.073C95.4298 86.4384 105.055 95.0455 113.449 104.594C116.447 108.004 119.39 111.527 122.164 115.178C123.58 117.042 124.149 117.424 125.562 115.55ZM97.0932 73.384C95.2085 74.2556 93.344 75.4059 91.8002 76.6763C91.3774 77.0233 90.8538 77.0771 90.4236 76.6946C90.0606 76.3709 90.0098 75.6422 90.4049 75.3179C92.1537 73.8793 94.0525 72.6545 96.1081 71.7032C96.6044 71.474 97.1313 71.5725 97.4411 72.0511C97.7078 72.4635 97.5566 73.1697 97.0932 73.384ZM102.325 74.8265C99.69 75.5046 97.2421 76.6873 95.0583 78.3095C94.6344 78.6245 93.9698 78.3765 93.7259 77.9609C93.4396 77.4727 93.6527 76.9411 94.0744 76.6285C96.3812 74.9148 99.0233 73.665 101.806 72.9484C103.019 72.6362 103.542 74.5124 102.325 74.8265Z" fill="#5CFFCD"/>
<path d="M124.656 142.709C125.311 143.829 125.976 145.033 126.42 146.29C126.933 146.155 127.446 145.992 127.958 145.763C127.994 145.746 128.023 145.727 128.057 145.711C126.681 142.331 124.504 139.192 122.436 136.275C112.653 122.47 100.127 110.337 87.5297 99.1176C81.2945 93.5643 74.8758 88.1746 68.1498 83.2231C63.8961 80.0913 59.1805 76.3996 54.0729 74.4122C53.9348 74.7809 53.8126 75.1566 53.7222 75.5417C55.5247 76.28 57.2337 77.2492 58.8814 78.2744C61.599 79.9641 64.1976 81.8418 66.7478 83.7721C73.2165 88.668 79.3618 93.9938 85.349 99.4632C91.9856 105.525 98.426 111.808 104.628 118.313C109.976 123.921 115.195 129.688 119.917 135.839C121.609 138.044 123.25 140.307 124.656 142.709Z" fill="#19BFBB"/>
<path d="M127.79 112.129C128.133 111.535 128.447 110.926 128.761 110.317C128.176 110.74 127.547 111.103 126.856 111.371C122.61 113.014 119.061 108.422 117.046 105.427C113.102 99.5686 109.129 94.3207 103.682 89.7172C99.9458 86.5595 95.5637 84.3519 91.5297 81.6208C89.7215 80.3968 87.6981 78.91 86.8717 76.8073C86.421 75.6593 86.7145 74.6061 87.3152 73.6662C86.4885 74.223 85.6937 74.8182 84.9557 75.4602C82.738 77.3878 83.2646 77.8212 85.0317 79.0729C95.4294 86.4383 105.054 95.0454 113.449 104.594C116.446 108.004 119.39 111.527 122.163 115.178C123.579 117.042 124.149 117.424 125.562 115.55C126.394 114.447 127.14 113.256 127.79 112.129Z" fill="#27D89D"/>
<path d="M103.465 146.264C101.02 144.989 98.1994 141.79 98.4555 138.791C97.584 138.21 96.7098 137.633 95.8505 137.032C95.2511 140.794 96.8662 144.744 100.145 146.831C103.12 148.725 106.81 149.024 109.984 147.74C107.745 147.769 105.584 147.368 103.465 146.264Z" fill="#EA0F4D"/>
<path d="M64.7825 107.089C64.4119 106.611 64.0473 106.127 63.6827 105.642C61.8349 105.361 60.0008 104.588 58.4859 103.745C56.4196 102.594 54.7167 100.967 53.5013 99.0374C53.7741 100.434 54.3104 101.791 55.1359 103.013C57.258 106.159 61.1151 107.671 64.7825 107.089Z" fill="#EA0F4D"/>
<path d="M82.6225 130.412C80.981 130.061 79.5113 129.305 78.1281 127.842C76.1905 125.793 75.4216 122.595 76.2085 119.904C75.2088 118.917 74.2073 117.931 73.2312 116.921C72.0975 120.693 73.076 124.874 75.9684 127.684C77.7809 129.444 80.1869 130.369 82.6225 130.412Z" fill="#EA0F4D"/>
<path d="M123.186 144.056C122.799 143.378 122.389 142.713 121.965 142.057C120.363 139.575 118.577 137.212 116.732 134.907C116.441 134.544 116.134 134.192 115.839 133.83C116.388 135.402 116.681 136.987 116.499 138.506C115.852 143.935 104.485 137.055 102.297 135.666C98.035 132.959 94.1763 129.628 90.424 126.266C82.8863 119.512 75.6319 112.441 68.9525 104.831C64.7061 99.9939 60.8701 94.9219 57.3381 89.6306C58.4354 91.7431 59.6344 93.8053 60.8943 95.8171C65.2313 102.742 70.2624 109.334 75.9955 115.165C78.9307 118.149 81.9851 121.021 84.9844 123.941C86.3044 125.224 87.6685 126.461 89.0682 127.658C95.3042 132.995 102.147 137.74 109.381 141.625C112.493 143.296 115.717 144.851 119.111 145.859C119.923 146.101 120.732 146.299 121.539 146.434C123.759 146.806 124.084 145.639 123.186 144.056Z" fill="#FFA222"/>
<path d="M71.117 79.5689C77.7135 84.5866 83.9853 90.0357 90.0989 95.6264C96.8496 101.8 103.404 108.194 109.723 114.809C115.195 120.536 120.538 126.423 125.382 132.695C126.297 133.881 127.197 135.084 128.057 136.314C120.167 123.178 109.091 111.666 98.3253 101.064C86.8208 89.7357 74.2148 77.8524 59.5167 70.5886C58.778 70.6128 58.0398 70.6981 57.3518 70.9204C59.3851 71.7049 61.2959 72.7975 63.1351 73.9529C65.8904 75.6839 68.5282 77.5998 71.117 79.5689Z" fill="#FFA222"/>
<path d="M128.514 97.9499C129.322 94.9975 129.639 91.9305 129.396 88.8797C128.876 82.3574 124.314 75.2532 117.957 73.0409C115.002 72.0132 111.708 71.6703 108.969 73.4357C106.405 75.0873 106.044 78.7812 107.013 81.3991C108.406 85.1617 112.935 87.671 116.073 89.7916C119.599 92.1743 123.536 94.8392 125.768 98.5605C127.429 101.33 127.802 100.553 128.514 97.9499Z" fill="#D3FFEB"/>
<path d="M103.298 124.075C95.458 114.792 79.9454 99.5713 70.0341 91.5024C61.4313 84.4987 60.4016 85.2773 66.8441 93.402C74.0783 102.53 84.4146 112.448 92.9249 120.304C95.3884 122.578 97.9029 124.916 100.556 126.954C107.629 132.395 109.199 131.063 103.298 124.075Z" fill="#FBE134"/>
</svg>
