<svg width="231" height="231" viewBox="0 0 231 231" fill="none" xmlns="http://www.w3.org/2000/svg">
<g clip-path="url(#clip0_167_294)">
<path d="M159.375 66.6259C157.316 59.6456 152.872 54.2464 145.215 54.3661C136.758 54.4979 122.732 65.1252 116.239 62.3518C98.8734 54.9321 77.867 62.5044 68.5028 79.0193C64.0715 86.8347 63.356 95.7315 65.1707 104.428C66.8952 112.692 54.5743 123.744 53.2975 133.499C50.432 155.391 82.0588 154.942 95.9341 151.309C96.1177 158.054 95.4404 165.996 97.1587 172.543C98.442 177.432 103.992 179.634 108.149 176.663C111.654 174.159 111.811 170.106 111.901 166.284C112.008 161.774 111.996 157.26 111.937 152.75C111.905 150.294 111.86 147.836 111.751 145.382C115.271 143.67 118.693 141.757 121.993 139.653C126.169 145.594 139.23 171.507 149.295 164.315C157.924 158.149 147.912 146.979 143.812 141.248C140.987 137.299 138.139 133.363 135.19 129.506C138.244 126.677 141.099 123.629 143.693 120.371C146.924 116.313 147.218 118.06 151.69 119.765C157.906 122.133 172.482 129.639 175.617 119.363C178.384 110.298 159.783 105.9 154.126 103.66C159.374 92.504 162.97 78.8174 159.375 66.6259C156.72 57.6239 161.308 73.1809 159.375 66.6259Z" fill="white"/>
<path d="M68.9845 148.368C79.5847 151.275 90.5482 149.447 99.4196 146.539C99.4875 150.565 99.6125 154.591 99.7763 158.615C99.8588 160.647 100.145 169.78 100.631 171.631C101.144 173.585 102.828 174.93 104.868 174.324C106.785 173.756 107.798 171.958 108.126 170.097C108.475 168.116 108.496 147.961 108.018 143.212C108.017 143.199 108.013 143.188 108.011 143.176C109.814 142.355 111.586 141.478 113.322 140.555C116.63 138.797 119.845 136.854 122.929 134.725C128.513 142.764 134.29 150.685 140.227 158.465C141.512 160.147 143.199 162.303 145.589 162.019C148.104 161.721 149.363 158.936 148.96 156.656C148.508 154.091 146.736 151.816 145.34 149.679C143.887 147.453 134.003 133.587 130.281 129.071C134.142 125.766 137.709 122.123 140.885 118.135C142.193 116.493 143.443 114.796 144.63 113.053C148.375 114.771 159.998 119.081 161.978 119.711C163.718 120.265 165.535 120.989 167.373 121.11C168.891 121.21 170.397 120.8 171.434 119.632C172.434 118.506 172.633 116.924 171.783 115.646C170.747 114.088 168.675 113.488 167.039 112.806C165.126 112.009 153.24 107.083 149.144 105.588C151.986 100.256 154.215 94.599 155.632 88.7454C157.264 82.0022 157.931 74.4232 155.931 67.6413C154.903 64.1525 152.632 58.837 147.717 58.1035C145.921 57.8357 144.004 57.9612 142.352 58.2043C135.836 59.1643 129.587 61.9442 123.825 65.029C122.227 65.8848 120.657 66.7927 119.111 67.7387C117.715 66.9713 116.282 66.2744 114.828 65.6531C111.167 64.0889 107.231 62.905 103.24 62.665C100.315 62.4891 97.4059 62.9057 94.5811 63.6553C90.6608 64.6962 81.95 68.8282 76.889 73.8985C71.5383 79.2585 68.1088 86.3412 67.8096 93.9576C67.6293 98.5583 68.3721 103.197 69.6708 107.604C69.799 108.039 69.9332 108.476 70.0732 108.914C65.2593 114.702 60.7724 121.009 58.2919 128.182C56.8289 132.412 55.6894 137.782 58.0895 141.902C59.5852 144.47 63.6026 146.893 68.9845 148.368Z" fill="#68182B"/>
<path d="M105.75 171.888C105.305 172.45 104.578 172.913 103.839 172.903C102.691 172.889 102.223 171.719 102.05 170.754C101.88 169.806 101.805 168.825 101.76 167.841C102.109 168.062 102.491 168.237 102.911 168.343C104.307 168.695 105.757 168.159 106.775 167.194C106.756 168.798 106.748 170.63 105.75 171.888Z" fill="#FF8E5B"/>
<path d="M106.885 163.153C106.863 163.98 106.727 164.901 106.322 165.621C105.514 167.057 103.061 167.63 102.069 166.136C101.771 165.687 101.652 164.986 101.598 163.902C101.513 162.182 101.434 160.462 101.364 158.741C101.189 154.498 101.055 150.253 100.987 146.008C102.845 145.354 104.679 144.633 106.484 143.851C107.093 150.247 107.055 156.722 106.885 163.153Z" fill="#67D5E8"/>
<path d="M145.897 153.495C147.005 155.298 148.629 158.579 146.227 160.144C144.207 161.46 142.303 158.579 141.281 157.237C140.954 156.807 140.634 156.372 140.308 155.941C142.315 155.48 144.261 154.188 145.185 152.37C145.421 152.746 145.665 153.117 145.897 153.495Z" fill="#FF8E5B"/>
<path d="M142.629 148.43C143.891 150.309 144.498 150.8 143.403 152.269C142.79 153.092 141.868 153.721 140.879 154.107C139.537 154.632 139.119 154.363 137.707 152.469C136.097 150.31 134.497 148.142 132.91 145.966C129.976 141.942 127.064 137.901 124.22 133.812C125.879 132.625 127.497 131.382 129.069 130.085C132.077 133.74 134.924 137.528 137.69 141.368C139.368 143.696 141.026 146.045 142.629 148.43Z" fill="#67D5E8"/>
<path d="M166.684 114.363C167.121 114.548 167.558 114.732 167.995 114.917C169.245 115.444 171.524 116.53 170.51 118.239C169.764 119.496 168.205 119.674 166.892 119.465C166.263 119.365 165.641 119.206 165.021 119.03C165.677 118.354 166.214 117.559 166.506 116.67C166.76 115.9 166.815 115.117 166.684 114.363Z" fill="#FF8E5B"/>
<path d="M163.194 112.89C164.075 113.261 164.598 113.804 164.878 114.356C165.526 115.637 165.12 117.379 163.782 118.067C163.349 118.289 162.763 118.312 161.919 118.039C160.177 117.477 158.444 116.887 156.721 116.268C152.926 114.904 149.187 113.39 145.519 111.715C146.524 110.175 147.477 108.598 148.376 106.991C153.37 108.806 158.293 110.828 163.194 112.89Z" fill="#67D5E8"/>
<path d="M154.763 85.2177C152.884 95.5606 148.209 105.402 142.102 113.904C135.281 123.399 126.44 131.051 116.414 137.01C107.29 142.434 97.085 146.543 86.501 147.852C84.8184 148.06 83.1005 148.193 81.3726 148.238C93.9829 143.069 105.968 136.339 116.875 128.166C128.01 119.821 138.117 109.946 146.236 98.6199C149.486 94.0852 152.409 89.3107 154.913 84.3241C154.863 84.6222 154.817 84.9225 154.763 85.2177Z" fill="#FAC135"/>
<path d="M153.285 84.0474C148.205 94.053 141.407 103.15 133.657 111.25C123.786 121.567 112.292 130.316 99.922 137.424C94.6977 140.425 89.3033 143.122 83.7756 145.514C78.5987 147.755 74.3686 149.233 66.0906 145.596C70.2042 145.44 72.3431 144.732 78.2241 141.487C82.3499 139.211 86.3817 136.743 90.3604 134.22C105.946 124.337 120.727 112.864 133.232 99.2403C138.973 92.9855 144.242 86.2445 148.611 78.9554C150.591 75.653 152.441 72.1494 153.398 68.3958C153.571 67.7159 153.711 67.0002 153.798 66.2756C156.648 73.7532 156.003 78.6939 153.285 84.0474Z" fill="#FF8E5B"/>
<path d="M91.3187 66.3842C94.0393 65.3317 96.8872 64.5692 99.7968 64.2983C103.103 63.9904 106.401 64.5047 109.576 65.4301C113.248 66.5006 116.799 68.1246 120.059 70.1195C122.533 71.6333 125.153 73.4351 126.888 75.8045C128.306 77.7412 127.639 80.0601 125.358 83.3973C122.582 87.4592 119.093 91.0531 115.561 94.4571C112.854 97.0665 110.035 99.5643 107.135 101.961C104.176 104.406 102.281 104.936 100.363 102.499C97.0668 98.3121 93.9742 93.9238 91.6082 89.1625C89.3954 84.709 87.8962 79.8886 87.9925 74.8754C88.1065 68.9064 89.1359 67.2284 91.3187 66.3842Z" fill="#67D5E8"/>
<path d="M87.4368 68.1361C86.3064 72.3525 86.0852 76.7251 87.0109 81.037C88.2239 86.6893 90.9981 91.8684 94.1714 96.6506C96.425 100.047 98.9197 103.276 101.501 106.428C100.065 107.518 98.6093 108.587 97.1309 109.625C94.9794 111.137 94.4564 111.344 92.7241 109.054C86.0625 100.248 80.9059 89.8099 81.906 78.5222C82.508 71.7237 83.341 70.2519 87.4368 68.1361Z" fill="#CEFFFF"/>
<path d="M72.9355 112.015C71.2523 108.106 70.1426 103.929 69.6405 99.704C69.159 95.652 69.2831 91.568 70.4045 87.6279C71.3739 84.2224 73.0525 81.0305 75.2003 78.2241C77.0156 75.8521 79.1568 73.7354 81.5224 71.9009C80.3561 76.2272 79.9187 80.7138 80.4084 85.1935C81.0672 91.2216 83.2794 96.9481 86.2577 102.195C88.2743 105.748 90.6531 109.081 93.2232 112.253C91.5828 113.303 89.9142 114.305 88.2077 115.238C86.381 116.237 84.4939 117.157 82.5292 117.852C79.896 118.784 77.4216 119.621 75.1481 116.213C74.2687 114.895 73.5612 113.468 72.9355 112.015Z" fill="#67D5E8"/>
<path d="M135.477 69.1701C136.394 68.1954 137.463 67.3632 138.564 66.6057C139.72 65.8097 140.936 65.094 142.203 64.4889C146.214 62.5733 149.089 63.3072 145.75 66.8948C143.642 69.0993 141.176 71.1518 138.302 72.2665C135.245 73.4522 132.403 72.4368 135.477 69.1701Z" fill="#FF8E5B"/>
<path d="M128.213 88.6392C129.008 87.562 129.969 86.6081 130.972 85.7247C132.025 84.7966 133.146 83.9405 134.332 83.1885C138.086 80.8076 141.028 81.193 138.141 85.1537C136.311 87.594 134.108 89.9263 131.388 91.3762C128.494 92.9183 125.551 92.2495 128.213 88.6392Z" fill="#FF8E5B"/>
<path d="M107.926 109.547C108.721 108.47 109.683 107.516 110.685 106.632C111.738 105.704 112.86 104.848 114.046 104.096C117.799 101.715 120.742 102.101 117.855 106.061C116.025 108.502 113.821 110.834 111.101 112.284C108.207 113.826 105.264 113.157 107.926 109.547Z" fill="#FF8E5B"/>
<path d="M84.7169 125.201C85.5498 124.154 86.5456 123.235 87.5793 122.389C88.6657 121.499 89.8173 120.685 91.03 119.976C94.8678 117.733 97.7937 118.225 94.7649 122.078C92.8476 124.451 90.561 126.701 87.7908 128.052C84.843 129.488 81.9256 128.713 84.7169 125.201Z" fill="#FF8E5B"/>
<path d="M145.855 59.5303C143.327 59.4983 140.798 60.0003 138.372 60.6736C132.133 62.4054 126.211 65.303 120.674 68.6409C122.035 69.4654 123.35 70.3617 124.593 71.3431C129.477 75.2035 130.338 77.1638 128.515 81.1082C127.705 82.8595 126.586 84.4757 125.422 86.0072C122.12 90.3511 118.191 94.2259 114.181 97.9095C109.568 102.147 104.703 106.125 99.622 109.789C95.2439 112.947 90.671 115.975 85.7559 118.237C84.0144 119.038 82.2038 119.745 80.3123 120.098C79.0403 120.335 77.5768 120.407 76.3986 119.778C76.3389 119.746 76.2874 119.709 76.241 119.67C75.3909 119.139 74.7245 118.36 74.1466 117.55C72.6665 115.475 71.5608 113.101 70.6786 110.675C69.6183 111.962 68.5719 113.261 67.5799 114.602C63.7134 119.828 60.1591 125.779 58.7862 132.21C58.4907 133.594 58.2712 135.179 58.3169 136.735C58.4762 142.132 63.6436 145.028 69.1614 143.6C70.7667 143.184 72.3061 142.583 73.6047 142.021C77.367 140.395 80.8814 138.179 84.3819 136.064C88.3609 133.659 92.2808 131.156 96.1299 128.549C110.572 118.768 124.22 107.517 135.568 94.217C140.817 88.0648 145.837 81.4046 149.464 74.1488C150.794 71.4883 152.049 68.5957 152.275 65.5926C152.472 62.9734 150.373 59.5876 145.855 59.5303ZM74.5807 127.204C72.5928 130.605 69.9448 134.095 66.2792 135.798C62.3716 137.615 58.8702 135.536 62.7843 129.586C63.7257 128.155 64.8466 126.851 66.0664 125.65C67.2397 124.494 68.507 123.392 69.8872 122.488C73.5476 120.09 77.8167 121.495 74.5807 127.204ZM96.0736 122.97C93.5979 126.033 90.4557 129.087 86.5762 130.22C82.4401 131.429 79.2905 128.849 84.0538 123.554C85.199 122.28 86.5033 121.159 87.8895 120.155C89.2227 119.188 90.6416 118.289 92.1415 117.602C96.1204 115.781 100.13 117.811 96.0736 122.97ZM119.195 106.905C116.832 110.057 113.802 113.221 109.966 114.495C105.877 115.854 102.636 113.389 107.204 107.925C108.302 106.61 109.565 105.442 110.914 104.388C112.211 103.374 113.596 102.424 115.07 101.684C118.981 99.7186 123.062 101.603 119.195 106.905ZM139.481 85.9969C137.118 89.1489 134.089 92.3136 130.253 93.5872C126.164 94.9458 122.923 92.4807 127.49 87.017C128.589 85.7025 129.852 84.5346 131.2 83.4809C132.498 82.4668 133.883 81.5165 135.357 80.776C139.267 78.8111 143.348 80.6952 139.481 85.9969ZM146.98 67.892C144.258 70.7391 140.872 73.5196 136.911 74.3262C132.689 75.1866 129.765 72.3523 134.953 67.473C136.201 66.2991 137.594 65.2903 139.059 64.405C140.468 63.5533 141.957 62.7749 143.509 62.2159C147.625 60.7321 151.452 63.0898 146.98 67.892Z" fill="#7761D3"/>
<path d="M63.6879 131.116C64.3541 129.955 65.2005 128.897 66.0955 127.905C67.036 126.863 68.0523 125.884 69.1448 125.002C72.6024 122.208 75.569 122.255 73.1529 126.52C71.6136 129.153 69.6908 131.721 67.1549 133.472C64.4557 135.335 61.4553 135.007 63.6879 131.116Z" fill="#FF8E5B"/>
<path d="M97.1992 145.578C103.938 143.571 110.411 140.578 116.414 137.01C126.44 131.051 135.281 123.399 142.102 113.904C144.536 110.516 146.736 106.913 148.629 103.152C142.618 111.342 135.82 118.952 128.296 125.777C119.142 134.082 108.764 141.241 97.1992 145.578Z" fill="#EE9E2B"/>
<path d="M106.896 112.045C107.054 113.358 109.088 113.356 111.101 112.284C113.821 110.834 116.025 108.501 117.855 106.061C119.15 104.284 119.269 103.229 118.671 102.819C117.729 104.955 116.203 106.753 114.505 108.451C113.185 109.772 109.199 113.126 106.896 112.045Z" fill="#FF564D"/>
<path d="M67.155 133.472C69.6909 131.721 71.6136 129.153 73.153 126.52C74.1089 124.833 74.2199 123.808 73.7939 123.356C72.973 125.407 71.7244 127.264 70.2382 128.998C68.6426 130.859 65.7363 133.62 62.9359 133.647C63.1864 135.009 65.2451 134.79 67.155 133.472Z" fill="#FF564D"/>
<path d="M83.5991 127.701C83.7457 128.981 85.7606 129.04 87.7908 128.052C90.5612 126.701 92.8476 124.451 94.7649 122.078C96.3522 120.059 96.3023 118.964 95.3448 118.701C94.7136 120.796 93.4205 122.599 91.7371 124.315C90.2597 125.819 86.0885 128.905 83.5991 127.701Z" fill="#FF564D"/>
<path d="M141.09 69.5848C139.534 70.5365 136.059 72.4475 134.191 71.204C133.843 72.8074 136.012 73.1545 138.302 72.2662C141.176 71.1515 143.642 69.0991 145.75 66.8945C147.429 65.0907 147.536 64.0093 146.719 63.6222C145.531 66.2219 143.667 68.0079 141.09 69.5848Z" fill="#FF564D"/>
<path d="M127.179 90.8055C127.018 92.4455 129.217 92.5332 131.388 91.3761C134.108 89.9262 136.311 87.5939 138.141 85.1536C139.861 82.7946 139.512 81.7046 138.156 81.7112C137.216 84.4434 135.667 86.7078 133.367 88.682C132.194 89.6892 128.847 92.0403 127.179 90.8055Z" fill="#FF564D"/>
<path d="M133.657 111.25C141.407 103.15 148.205 94.053 153.285 84.0474C153.87 82.8957 154.352 81.7625 154.73 80.6196C150.531 88.967 144.61 96.5118 138.382 103.372C126.472 116.488 112.529 128.196 97.3931 137.42C92.2379 140.561 86.8485 143.404 81.1633 145.463C78.3914 146.467 75.4352 147.313 72.4552 147.584C76.9301 148.298 80.1175 147.098 83.7758 145.514C89.3034 143.122 94.6978 140.425 99.9221 137.424C112.292 130.316 123.786 121.567 133.657 111.25Z" fill="#FF564D"/>
<path d="M106.732 168.661C105.621 170.531 103.986 172.041 102.274 171.575C102.54 172.278 103.01 172.893 103.839 172.903C104.578 172.912 105.306 172.45 105.751 171.888C106.452 171.003 106.661 169.835 106.732 168.661Z" fill="#FF564D"/>
<path d="M146.227 160.144C148.057 158.951 147.549 156.764 146.713 154.991C146.715 155.411 146.693 155.832 146.625 156.255C146.35 157.989 144.831 159.288 143.061 159.185C142.976 159.179 142.895 159.156 142.812 159.144C143.788 160.175 144.985 160.953 146.227 160.144Z" fill="#FF564D"/>
<path d="M166.944 119.472C168.246 119.668 169.774 119.48 170.51 118.239C170.946 117.505 170.772 116.886 170.334 116.377C169.695 117.759 168.385 118.913 166.944 119.472Z" fill="#FF564D"/>
<path d="M115.143 118.24C124.049 110.548 132.611 102.323 140.053 93.1896C143.542 88.9079 146.783 84.3703 149.326 79.4567C150.628 76.9414 151.746 74.2577 152.399 71.4793C151.393 74.0872 150.038 76.5747 148.611 78.9554C144.242 86.2447 138.973 92.9857 133.232 99.2403C120.727 112.865 105.946 124.337 90.3607 134.22C86.3819 136.743 82.3502 139.211 78.2243 141.487C75.4013 143.045 73.4433 144.014 71.7124 144.622C72.4214 144.709 73.1965 144.56 73.8406 144.422C75.9073 143.98 77.8889 143.095 79.7967 142.21C84.9655 139.813 89.8782 136.832 94.6768 133.773C101.938 129.145 108.63 123.865 115.143 118.24Z" fill="#FBC471"/>
<path d="M155.663 113.878C153.843 113.21 151.366 112.65 149.177 111.732C148.982 111.645 148.787 111.56 148.595 111.466C148.229 111.289 147.851 111.099 147.479 110.893C147.397 110.847 147.316 110.799 147.235 110.752C147.223 110.745 147.21 110.738 147.198 110.73C146.94 110.568 146.698 110.393 146.464 110.211C146.151 110.714 145.843 111.22 145.519 111.716C149.187 113.39 152.926 114.904 156.721 116.268C158.444 116.887 160.177 117.477 161.919 118.039C162.763 118.312 163.349 118.289 163.782 118.067C164.456 117.72 164.892 117.106 165.078 116.419C161.854 116.271 158.676 114.985 155.663 113.878Z" fill="#65B0B9"/>
<path d="M105.137 144.407C105.422 148.471 105.382 152.537 105.187 156.628C105.08 158.851 104.96 161.075 104.752 163.291C104.64 164.49 104.453 165.864 103.937 167.01C104.883 166.968 105.866 166.432 106.322 165.621C106.727 164.901 106.863 163.98 106.885 163.153C107.055 156.722 107.093 150.247 106.484 143.851C106.038 144.044 105.586 144.222 105.137 144.407Z" fill="#65B0B9"/>
<path d="M126.356 132.228C127.327 132.835 128.206 133.605 129.05 134.437C131.037 136.393 132.867 138.545 134.724 140.622C137.965 144.246 141.029 147.986 143.49 152.145C144.457 150.773 143.854 150.254 142.629 148.43C141.026 146.045 139.368 143.696 137.69 141.368C134.924 137.528 132.077 133.74 129.069 130.085C128.18 130.818 127.273 131.53 126.356 132.228Z" fill="#65B0B9"/>
<path d="M84.7733 107.833C82.7101 111.703 78.5024 113.419 74.5004 111.478C73.6134 111.048 72.8044 110.466 72.06 109.797C72.3337 110.544 72.6211 111.285 72.9354 112.015C73.5612 113.468 74.2687 114.895 75.1481 116.214C77.4216 119.621 79.8961 118.784 82.5292 117.852C84.4938 117.157 86.381 116.237 88.2077 115.238C89.9142 114.305 91.5828 113.303 93.2232 112.254C90.8108 109.276 88.5712 106.154 86.6369 102.844C86.237 104.538 85.6401 106.208 84.7733 107.833Z" fill="#65B0B9"/>
<path d="M126.888 75.8044C125.513 73.9266 123.582 72.4086 121.608 71.1045C121.741 71.5809 121.857 72.0646 121.95 72.5575C122.676 76.4311 121.536 80.135 119.711 83.5262C116.653 89.2101 110.482 95.6414 103.57 95.7491C98.4668 95.8285 94.3397 91.8138 91.556 87.9669C91.0458 87.2618 90.5664 86.5346 90.1116 85.792C90.5582 86.9362 91.0608 88.0607 91.6084 89.1625C93.9744 93.9238 97.067 98.312 100.363 102.499C102.282 104.936 104.177 104.406 107.135 101.961C110.036 99.5643 112.854 97.0665 115.561 94.4571C119.093 91.053 122.582 87.4591 125.358 83.3973C127.639 80.0602 128.306 77.7413 126.888 75.8044Z" fill="#65B0B9"/>
<path d="M113.214 72.1357C110.445 70.2158 106.835 69.4776 103.577 68.8986C97.0003 67.7299 91.4543 69.8964 92.0248 76.4909C92.426 81.1364 94.5116 86.6767 98.6487 89.368C103.664 92.6311 108.74 88.9628 112.171 85.2396C113.984 83.2719 115.633 80.8968 116.187 78.2392C116.731 75.6351 115.28 73.568 113.214 72.1357Z" fill="#A6F4FF"/>
<path d="M72.4779 90.4366C71.8557 95.049 72.078 99.992 73.9256 104.011C74.856 106.035 76.8658 107.676 79.1816 107.205C81.2397 106.786 81.7339 104.562 81.4814 102.8C81.0547 99.8171 79.1467 97.1283 78.1254 94.3311C77.2589 91.9585 76.9016 89.464 76.2738 87.0451C75.2191 82.9781 72.6545 85.5951 72.4779 90.4366Z" fill="#A6F4FF"/>
<path d="M87.011 81.0371C86.2571 77.5248 86.2753 73.9736 86.9144 70.4982C85.7478 73.334 84.9944 76.38 85.0509 79.3592C85.1302 83.5456 86.6771 87.6678 88.4401 91.4073C90.0829 94.8916 92.1305 98.1916 94.3815 101.313C96.0543 103.632 97.4693 106.089 98.4055 108.711C99.4464 107.961 100.481 107.203 101.501 106.429C98.9198 103.277 96.425 100.047 94.1715 96.6508C90.998 91.8684 88.2239 86.6893 87.011 81.0371Z" fill="#A9CDDD"/>
<path d="M148.704 73.3564C145.875 79.378 141.619 84.8286 137.461 89.9751C132.041 96.6826 126.096 103.002 119.666 108.75C116.482 111.597 113.086 114.16 109.717 116.78C105.938 119.718 102.191 122.697 98.3573 125.565C90.7243 131.275 82.4592 136.287 73.7962 140.296C70.7319 141.715 67.3301 143 63.8984 142.767C62.4508 142.668 61.226 142.194 60.1934 141.463C62.2126 143.64 65.6104 144.519 69.1612 143.6C70.7665 143.184 72.3059 142.583 73.6046 142.021C77.3669 140.395 80.8813 138.179 84.3818 136.064C88.3607 133.659 92.2806 131.156 96.1297 128.549C110.571 118.768 124.22 107.517 135.567 94.2171C140.817 88.0648 145.837 81.4046 149.464 74.1488C150.794 71.4883 152.049 68.5957 152.275 65.5926C152.284 65.4778 152.283 65.3598 152.282 65.2422C151.274 68.0185 149.956 70.6908 148.704 73.3564Z" fill="#584AB9"/>
</g>
<defs>
<clipPath id="clip0_167_294">
<rect width="165" height="165" fill="white" transform="translate(0 95.9254) rotate(-35.5467)"/>
</clipPath>
</defs>
</svg>
