<svg width="177" height="177" viewBox="0 0 177 177" fill="none" xmlns="http://www.w3.org/2000/svg">
<g clip-path="url(#clip0_167_239)">
<path d="M68.3073 46.0355C67.6922 48.7762 67.3259 51.5702 67.1502 54.3733C66.9834 57.0281 66.7953 56.1756 64.7836 57.2803C64.1078 57.652 63.3141 58.6746 62.6311 58.1425C57.5155 54.1797 50.7748 53.2538 47.35 59.8739C43.7684 66.7982 41.0001 80.0416 52.3552 80.6908C52.0155 82.0453 51.6803 83.4015 51.3577 84.76C39.5892 80.0973 33.0023 100.783 40.2531 107.772C42.0789 109.531 44.5164 110.161 46.9907 109.971C48.4356 109.862 49.8704 109.602 51.2869 109.304C52.4911 111.219 54.1582 111.378 53.1364 113.592C50.4581 119.393 48.254 127.271 51.9284 133.141C59.5004 145.237 79.2726 135.402 88.6166 130.856C93.7536 128.355 98.9765 123.425 104.744 124.137C110.24 124.816 115.787 125.107 121.322 124.779C133.534 124.058 148.184 119.725 151.05 106.074C154.265 90.7616 141.781 78.8332 129.265 72.6068C126.147 71.0562 122.918 69.7424 119.645 68.5582C115.818 67.172 115.008 66.7302 112.653 63.3653C107.702 56.294 102.355 49.4563 96.0281 43.5538C92.0521 39.7568 87.8524 35.8482 82.1285 35.2144C74.8598 34.4099 69.8141 39.3224 68.3073 46.0355Z" fill="white"/>
<path d="M72.2825 46.9289C71.7151 49.4555 71.3784 52.0444 71.216 54.6277C71.1112 56.2946 71.0453 58.0365 71.2383 59.7207C69.7191 59.7377 68.2157 60.0437 66.7461 60.85C65.3154 61.6363 64.0974 62.6693 63.0974 63.8944C63.0566 63.8566 63.017 63.8182 62.9762 63.7801C62.0626 62.9377 61.1176 62.1239 60.1353 61.3626C59.0964 60.5571 58.0077 59.826 56.8048 59.2883C55.3357 58.6307 53.8999 58.719 52.5839 59.6988C51.2158 60.7182 50.5767 62.5619 49.96 64.093C49.3084 65.7154 48.8381 67.3899 48.5275 69.1105C48.2323 70.741 47.8263 72.6625 48.4741 74.2507C49.0863 75.7524 50.4667 76.3732 51.9732 76.5728C52.8957 76.6954 55.9009 76.7329 57.7071 76.4708C57.0787 78.6312 56.5212 80.8078 55.9885 82.9606C55.3464 85.5513 54.7093 88.2006 54.1896 90.871C49.1646 87.7102 47.3498 87.6904 46.0648 88.2103C44.2884 88.9263 43.6589 90.8281 43.0956 92.4979C42.5478 94.1239 42.1789 95.8116 41.9633 97.5146C41.86 98.3304 41.7976 99.1519 41.7669 99.9746C41.7311 100.936 41.6538 101.98 41.9377 102.91C42.457 104.611 43.6973 105.727 45.4625 105.923C46.6705 106.055 49.5716 105.608 53.5771 104.586C54.4802 107.51 56.4096 109.735 59.2412 110.931C54.6483 117.832 49.5341 132.702 61.4101 134.509C67.5041 135.435 74.231 132.372 79.8446 130.243C86.3114 127.787 92.3843 124.374 98.3987 120.973C100.396 119.842 100.448 119.459 102.445 119.73C103.84 119.92 105.238 120.099 106.636 120.261C120.925 121.908 147.133 121.399 147.476 101.421C147.618 93.2304 142.363 86.4423 136.171 81.6448C129.995 76.8584 122.654 73.8519 115.263 71.3409C112.533 70.4122 112.958 71.0012 111.437 68.7748C106.007 60.8201 100.326 53.1352 93.2489 46.533C89.8715 43.3815 86.5057 39.7985 81.6796 39.2639C79.4285 39.0146 77.0947 39.5464 75.334 41.0108C73.5444 42.4984 72.7766 44.7307 72.2825 46.9289Z" fill="#68182B"/>
<path d="M61.0701 66.0858C61.1996 66.2062 61.326 66.3349 61.4531 66.4611C60.3833 68.6343 59.4978 70.9085 58.7218 73.2268C58.5682 73.2702 57.1447 73.5433 56.584 73.6031C55.2891 73.7384 55.2774 73.4077 55.4715 72.0463C55.5325 71.6102 55.612 71.1776 55.7029 70.7497C56.096 68.8876 56.6436 66.9709 57.5177 65.261C57.9133 64.4906 58.5296 63.8653 59.3579 64.5581C59.928 65.0347 60.4944 65.5448 61.0701 66.0858Z" fill="#FF7A0D"/>
<path d="M51.1711 71.927C51.2307 71.155 51.3207 70.382 51.456 69.6196C51.6966 68.2658 52.0844 66.9328 52.5642 65.6453C52.7927 65.0346 53.0422 64.4303 53.3133 63.8353C54.1051 62.1065 54.8095 61.5641 56.0433 62.2268C57.1388 62.8138 56.9886 63.2599 56.5907 63.9554C56.1368 64.7436 55.7755 65.5935 55.4562 66.4424C54.707 68.4335 54.1382 70.5758 53.9408 72.7117C53.8641 73.5577 53.7748 73.7154 53.0035 73.6627C51.8338 73.577 51.0675 73.2815 51.1711 71.927Z" fill="#FAC135"/>
<path d="M53.0652 100.331C53.0553 100.765 53.0603 101.201 53.0781 101.637C52.2301 101.895 51.3744 102.134 50.5115 102.341C48.9536 102.715 48.4947 102.636 48.6048 100.876C48.6812 99.6462 48.9635 98.3996 49.2111 97.354C49.4778 96.2203 49.8332 94.8516 50.4329 93.6874C51.017 92.55 51.1917 92.5275 51.9921 93.0175C52.6058 93.3915 53.1461 93.7385 53.622 94.1711C53.318 96.223 53.1095 98.2826 53.0652 100.331Z" fill="#FF7A0D"/>
<path d="M44.7046 101.466C44.6351 100.742 44.7581 99.9414 44.7996 99.3053C44.888 97.9456 45.0734 96.597 45.4026 95.2734C45.5689 94.6042 45.7648 93.9429 45.9885 93.2905C46.1093 92.9397 46.2225 92.5321 46.3697 92.1465C46.9445 90.6454 47.5238 90.85 48.6432 91.2913C49.8304 91.7595 49.7416 91.9062 49.1983 92.9575C48.4685 94.3654 48.0515 96.0251 47.7259 97.4061C47.3955 98.8122 47.0943 100.435 47.1667 101.984C47.2061 102.785 47.1074 102.989 46.2082 102.969C45.4295 102.949 44.8267 102.734 44.7046 101.466Z" fill="#FAC135"/>
<path d="M58.4113 107.03C57.0544 105.87 56.4609 104.212 56.1499 102.503C55.5517 98.7345 57.8358 84.3176 62.4711 71.7246C63.1476 69.8889 63.8226 68.0562 64.8918 66.4264C66.4728 64.0172 69.5232 62.1825 72.4521 62.6932C74.8312 63.1084 77.193 63.817 79.5394 64.3858C80.2186 64.5517 80.897 64.7238 81.5764 64.8912C79.6406 66.7006 78.3456 69.3036 77.2667 71.631C75.5549 75.3272 74.2958 79.2239 73.2452 83.1579C71.3647 82.9067 69.4937 82.6819 67.6603 82.5075C65.3463 82.324 62.5816 82.8511 61.9046 85.4594C61.6247 86.539 61.907 87.6503 62.575 88.5273C63.3617 89.5575 64.5532 90.0081 65.7277 90.4447C67.5254 91.0924 69.3698 91.7291 71.2456 92.3406C70.5956 96.1462 70.1267 100.006 70.1502 103.868C70.164 106.089 70.2342 108.668 71.1207 110.807C71.0795 110.797 71.0384 110.788 70.9972 110.78C68.6109 110.24 66.2294 109.689 63.8485 109.127C61.9594 108.683 59.9354 108.333 58.4113 107.03Z" fill="#FF2E60"/>
<path d="M95.1196 91.42C96.9521 92.1866 96.5732 94.1405 94.4712 94.1107C85.1748 93.7008 75.3546 90.7307 66.6392 87.5935C64.3961 86.7584 64.9302 85.2933 67.5023 85.4993C76.6191 86.3706 86.5231 88.1745 95.1196 91.42Z" fill="#00EBED"/>
<path d="M70.3725 130.265C64.4163 131.995 55.1371 132.996 57.393 123.352C58.154 120.098 59.3615 116.614 61.0951 113.637C61.9744 112.13 62.5761 111.936 63.8408 112.25C67.8356 113.243 71.8978 114.053 75.9065 114.917C81.2007 116.056 86.5199 117.132 91.8626 118.074C95.0418 118.632 95.5332 119.16 92.5434 120.765C85.436 124.583 78.2273 127.984 70.3725 130.265Z" fill="#00EBED"/>
<path d="M143.726 96.1496C144.754 99.4017 144.734 102.949 143.663 106.199C142.74 109.004 140.899 111.247 138.541 112.893C136.649 114.212 136.019 114.196 135.282 111.982C134.695 110.212 134.665 108.165 134.81 106.453C135.119 102.832 136.35 99.1082 138.569 96.2007C139.068 95.5477 139.644 94.9308 140.291 94.4095C142.579 92.5594 143.068 94.0718 143.726 96.1496Z" fill="#FF2E60"/>
<path d="M81.5229 42.2553C83.2235 42.4457 84.8354 43.1661 86.158 44.2401C88.09 45.8081 89.9378 47.5041 91.7431 49.2176C94.8773 52.1935 97.8041 55.3752 100.507 58.7461C102.527 61.2651 104.429 63.8745 106.279 66.5206C107.778 68.6656 107.128 68.7254 104.608 67.9743C96.4765 65.5441 88.2515 63.4274 80.0047 61.4256C78.7359 61.1176 77.4527 60.7437 76.1638 60.4249C74.6742 60.054 74.1737 59.7878 74.069 58.0585C73.8987 55.2194 74.357 52.2033 74.8064 49.5185C75.1175 47.6522 75.4562 45.3695 76.6947 43.8697C77.8859 42.4257 79.7393 42.0548 81.5229 42.2553Z" fill="#00EBED"/>
<path d="M133.72 111.652C132.727 107.747 133.491 103.323 135 99.6528C136.3 96.4865 138.444 93.1933 141.746 91.9151C138.393 86.4118 132.741 82.3932 127.134 79.4734C118.886 75.1785 109.721 72.5278 100.818 69.9608C96.1216 68.6058 91.3979 67.3513 86.6603 66.1517C83.7342 65.4101 82.7799 65.2852 81.0274 67.7351C79.9524 69.2414 79.1254 70.9738 78.408 72.569C76.8465 76.0383 75.6709 79.6748 74.6816 83.3477C81.9499 84.3976 89.3797 86.0567 96.031 88.5683C98.0436 89.4017 99.958 91.472 99.2162 93.855C98.4897 96.1858 96.5982 97.1302 94.3139 97.1019C87.1408 96.7861 79.6786 95.0109 72.619 92.7817C72.0345 96.2861 71.6131 99.8306 71.5865 103.384C71.575 104.876 71.5731 106.56 71.8538 108.15C72.3209 110.78 74.062 111.459 76.5495 111.999C79.475 112.633 82.4071 113.246 85.3454 113.819C94.6774 115.645 104.188 117.401 113.702 117.853C118.101 118.062 122.448 117.848 126.783 117.06C129.618 116.544 132.465 115.877 135.12 114.741C134.457 113.831 134.004 112.767 133.72 111.652ZM113.427 115.864C112.158 115.082 112.221 113.525 112.748 112.312C113.359 110.911 114.266 109.63 114.984 108.281C115.821 106.705 116.57 105.085 117.218 103.422C119.552 97.4341 120.253 91.1784 119.849 84.7895C119.771 83.5534 119.543 82.1975 120.073 81.0271C120.558 79.9533 121.693 79.4018 122.835 79.7326C124.158 80.1157 124.826 81.3972 125.341 82.5693C125.827 83.675 126.26 84.8031 126.656 85.945C128.405 90.9975 129.444 96.783 127.673 101.975C125.888 107.208 121.849 111.372 117.681 114.834C116.515 115.781 114.914 116.779 113.427 115.864Z" fill="#FFF18A"/>
<path d="M122.515 81.1337C123.584 81.4982 124.055 83.1781 124.444 84.125C124.856 85.1277 125.231 86.1467 125.56 87.1793C126.976 91.6124 127.859 96.6062 126.432 101.148C124.803 106.323 120.782 110.392 116.705 113.777C116.133 114.243 115.419 114.859 114.631 114.773C113.841 114.686 113.711 113.984 113.901 113.322C114.225 112.199 115.02 111.178 115.588 110.167C116.857 107.904 117.971 105.55 118.87 103.115C120.768 97.9775 121.503 92.6439 121.383 87.1798C121.358 86.0475 121.283 84.9197 121.208 83.7894C121.152 82.9422 121.016 80.6226 122.515 81.1337Z" fill="#5CFFCD"/>
<path d="M76.1638 60.4248C77.4527 60.7436 78.7359 61.1176 80.0046 61.4255C85.5078 62.7622 90.9966 64.1573 96.4586 65.6546C92.6912 63.9294 89.0412 61.9463 85.633 59.3942C82.2741 56.8794 78.582 53.2711 78.7067 48.7531C78.7926 45.611 80.8746 43.6991 83.4831 42.741C82.8493 42.5102 82.1967 42.331 81.5226 42.2554C79.739 42.0549 77.8857 42.4258 76.6944 43.87C75.4558 45.3698 75.1171 47.6523 74.8061 49.5188C74.3568 52.2035 73.8983 55.2195 74.0687 58.0588C74.1737 59.7878 74.6742 60.0542 76.1638 60.4248Z" fill="#19BFBB"/>
<path d="M65.2303 86.3198C65.2029 86.7362 65.65 87.2254 66.6391 87.5934C75.3546 90.7307 85.1749 93.7006 94.4711 94.1106C95.5501 94.1268 96.1711 93.6193 96.2763 93.0174C90.1184 93.1445 83.7319 91.3262 77.8853 89.8973C73.7008 88.8758 69.4076 87.7318 65.2303 86.3198Z" fill="#19BFBB"/>
<path d="M79.845 115.734C78.5323 115.461 77.2158 115.197 75.9065 114.917C71.8976 114.053 67.8355 113.243 63.8408 112.25C62.5762 111.936 61.9745 112.131 61.0951 113.637C59.3616 116.614 58.154 120.098 57.3929 123.352C55.4979 131.453 61.7434 132.043 67.3208 130.999C63.9215 129.469 61.5289 126.168 64.2877 122.504C66.5871 119.448 70.8909 117.62 74.4537 116.574C76.2122 116.056 78.0204 115.814 79.845 115.734Z" fill="#19BFBB"/>
<path d="M55.7028 70.7496C55.612 71.1776 55.5325 71.6102 55.4714 72.0463C55.2774 73.4077 55.2893 73.7385 56.584 73.6031C56.7253 73.5871 56.923 73.5587 57.1414 73.5244C56.6234 71.8161 56.7665 70.0387 57.3626 68.1016C57.7366 66.8874 58.4117 65.5328 59.3757 64.5745C59.3696 64.5687 59.3638 64.5636 59.3579 64.5581C58.5296 63.8653 57.9133 64.4908 57.5177 65.261C56.6436 66.9709 56.096 68.8876 55.7028 70.7496Z" fill="#EF6200"/>
<path d="M49.2111 97.3538C48.9637 98.3996 48.6813 99.6462 48.6048 100.875C48.4948 102.636 48.9536 102.715 50.5115 102.341C50.5793 102.325 50.645 102.303 50.7117 102.286C49.1692 99.6343 50.1871 95.7781 52.3288 93.2332C52.2151 93.1615 52.112 93.0902 51.9923 93.0172C51.1918 92.527 51.0172 92.5497 50.4331 93.6871C49.8333 94.8514 49.4777 96.2202 49.2111 97.3538Z" fill="#EF6200"/>
<path d="M113.901 113.322C113.802 113.666 113.792 114.018 113.915 114.292C116.926 111.191 119.337 107.774 120.891 103.724C123.434 97.0947 123.806 88.2653 121.521 81.3794C121.097 81.9664 121.17 83.2156 121.208 83.7895C121.282 84.9198 121.358 86.0478 121.383 87.1799C121.503 92.6438 120.768 97.9775 118.87 103.115C117.971 105.55 116.857 107.904 115.588 110.167C115.02 111.178 114.225 112.199 113.901 113.322Z" fill="#27D89D"/>
<path d="M138.465 96.3495C136.314 99.2339 135.114 102.892 134.81 106.453C134.665 108.165 134.695 110.212 135.283 111.982C136.019 114.196 136.649 114.212 138.541 112.893C139.633 112.129 140.608 111.233 141.439 110.217C140.616 110.584 139.753 110.753 138.824 110.578C136.654 110.166 136.48 107.161 136.479 105.496C136.478 102.565 137.136 99.2187 138.465 96.3495Z" fill="#EA0F4D"/>
<path d="M62.4711 71.7246C57.8359 84.3177 55.5518 98.7346 56.1499 102.503C56.4608 104.212 57.0542 105.87 58.4113 107.03C59.9354 108.333 61.9594 108.683 63.8488 109.127C64.058 109.177 64.2677 109.223 64.4765 109.273C62.2663 107.402 60.5156 105.054 59.5517 102.013C57.8651 96.6946 58.9492 90.7892 60.3399 85.5423C61.7237 80.3182 63.4156 74.8379 66.1137 70.1404C67.4775 67.7648 70.3684 64.2924 73.5517 62.9156C73.1849 62.8396 72.8188 62.7566 72.4522 62.693C69.5232 62.1823 66.4729 64.0169 64.8919 66.4262C63.8226 68.0562 63.1476 69.8889 62.4711 71.7246Z" fill="#EA0F4D"/>
<path d="M89.7948 111.398C85.0599 109.052 77.9456 105.541 77.7243 99.3926C77.6525 97.4187 78.7534 95.9852 80.2336 94.9271C77.6661 94.2974 75.1167 93.5701 72.6193 92.7818C72.0347 96.2861 71.6134 99.8306 71.5868 103.384C71.5753 104.876 71.5733 106.56 71.8541 108.15C72.3211 110.78 74.0622 111.459 76.5497 111.999C79.4753 112.633 82.4073 113.246 85.3457 113.819C91.9952 115.121 98.736 116.377 105.504 117.161C100.101 115.824 94.8288 113.89 89.7948 111.398Z" fill="#F3AF79"/>
<path d="M86.6604 66.1519C83.7343 65.4103 82.78 65.2854 81.0275 67.7352C79.9525 69.2416 79.1255 70.9739 78.4081 72.5691C76.8466 76.0384 75.6711 79.6749 74.6817 83.3479C77.3643 83.7353 80.0695 84.2075 82.749 84.7733C80.4947 81.8886 79.6518 78.4093 81.9821 74.5199C84.4046 70.4761 88.6011 68.5117 93.092 67.8251C90.9514 67.2551 88.8082 66.6949 86.6604 66.1519Z" fill="#F3AF79"/>
<path d="M52.5643 65.6452C52.0844 66.9328 51.6967 68.2657 51.4561 69.6195C51.3208 70.3819 51.2307 71.1548 51.1712 71.927C51.0748 73.1812 51.7303 73.5251 52.7561 73.6362C51.5046 71.9613 52.2429 69.6328 52.8305 67.6532C53.449 65.5699 54.0605 63.4247 55.8472 62.1408C54.7362 61.6423 54.0611 62.2029 53.3132 63.8354C53.042 64.4302 52.7928 65.0344 52.5643 65.6452Z" fill="#FFA222"/>
<path d="M45.9886 93.2905C45.765 93.9429 45.569 94.6041 45.4028 95.2733C45.0736 96.5969 44.8879 97.9454 44.7998 99.3053C44.7582 99.9413 44.6351 100.742 44.7048 101.466C44.8269 102.734 45.43 102.949 46.2086 102.969C46.2302 102.968 46.2468 102.968 46.2677 102.968C45.4691 101.419 45.4556 99.6723 45.6721 97.8045C45.9267 95.614 46.545 92.73 48.3022 91.1605C47.4026 90.8287 46.8834 90.808 46.3701 92.1465C46.2227 92.532 46.1095 92.9396 45.9886 93.2905Z" fill="#FFA222"/>
<path d="M93.5512 118.449C89.3116 121.628 84.836 124.255 80.0239 126.564C78.8317 127.137 77.6286 127.707 76.4143 128.254C81.9916 126.172 87.2957 123.584 92.5432 120.765C94.8761 119.512 95.0811 118.917 93.5512 118.449Z" fill="#6CFFFB"/>
<path d="M98.584 58.361C100.523 61.1025 102.382 63.9091 104.07 66.8116C104.299 67.2072 104.521 67.6086 104.739 68.012C107.146 68.7204 107.751 68.6272 106.279 66.5206C104.429 63.8743 102.527 61.2651 100.507 58.7461C97.8041 55.3752 94.8774 52.1934 91.7431 49.2175C91.1045 48.6122 90.4524 48.0157 89.8011 47.4185C92.9506 50.8644 95.8513 54.4999 98.584 58.361Z" fill="#6CFFFB"/>
<path d="M135 99.6528C136.3 96.4866 138.444 93.1933 141.746 91.9151C138.393 86.4118 132.741 82.3933 127.134 79.4734C125.949 78.8573 124.739 78.2805 123.519 77.7268C126.076 79.1599 128.536 80.7611 130.851 82.614C133.119 84.4282 137.217 87.3151 137.437 90.4613C137.577 92.4631 135.555 94.8269 134.787 96.6611C133.874 98.8414 133.096 102.094 133.543 104.816C133.832 103.022 134.337 101.264 135 99.6528Z" fill="#FFF7CF"/>
<path d="M142.626 105.327C143.093 103.492 143.293 101.528 143.201 99.6402C142.987 95.2398 141.342 98.2381 140.835 99.3194C140.034 101.029 139.602 103.181 139.678 104.949C139.811 108.128 141.967 107.923 142.626 105.327Z" fill="#FF6699"/>
</g>
<defs>
<clipPath id="clip0_167_239">
<rect width="131" height="131" fill="white" transform="translate(116.424) rotate(62.7142)"/>
</clipPath>
</defs>
</svg>
