<svg width="264" height="264" viewBox="0 0 264 264" fill="none" xmlns="http://www.w3.org/2000/svg">
<path d="M52.3337 130.855C52.279 130.832 52.2079 130.801 52.1188 130.763C52.1899 130.794 52.255 130.822 52.3367 130.856C52.3573 130.865 52.354 130.863 52.3643 130.869C58.2856 133.416 64.4161 137.033 69.0719 141.545C71.7714 144.158 72.9139 146.199 69.2549 148.229C65.7549 150.169 62.5534 152.63 59.6979 155.429C53.3666 161.638 39.7325 184.795 59.0128 183.767C58.4376 187.361 58.6858 191.053 58.0006 194.624C57.1612 198.974 54.5803 202.494 57.169 206.892C59.9396 211.606 65.6864 211.835 70.1151 209.537C73.7822 207.638 79.0188 208.664 82.9972 208.13C81.5839 222.377 96.6623 218.894 104.079 213.923C108.204 211.16 111.937 207.78 115.039 203.899C116.948 201.509 118.619 198.921 119.952 196.167C123.194 197.544 124.317 198.368 126.012 201.705C130.51 210.559 132.718 224.124 143.728 227.517C155.223 231.06 164.496 218.92 169.936 210.704C176.279 201.127 181.222 190.296 183.16 178.922C184.029 173.833 184.259 168.614 183.567 163.487C182.79 157.724 191.911 151.469 195.716 146.897C211.252 128.229 222.235 106.286 227.994 82.7096C232.445 64.8274 229.512 41.4182 205.644 42.1129C181.272 42.8233 157.292 47.7764 136.054 60.1503C125.681 66.195 116.279 73.7647 107.895 82.3433C96.4759 79.8241 84.0485 82.3755 73.1738 86.0492C63.1616 89.433 50.9388 94.4636 43.9975 102.87C35.0464 113.707 40.6127 125.839 52.3337 130.855Z" fill="white"/>
<path d="M218.538 54.7362C215.791 51.8546 212.072 50.0208 208.077 49.7811C206.053 49.6617 203.973 49.8695 201.951 49.9667C197.716 50.1724 193.484 50.4556 189.272 50.9109C167.783 53.2307 147.35 60.5716 129.828 73.3445C122.691 78.5482 116.161 84.5417 110.185 91.0483C110.013 90.9424 109.818 90.8505 109.606 90.7749C102.955 88.3872 95.5254 88.8024 88.6713 89.9741C80.7827 91.3194 73.0186 93.8821 65.7634 97.2466C62.5786 98.7255 59.4853 100.395 56.5466 102.316C53.6621 104.202 50.6458 106.274 48.8046 109.26C47.0203 112.153 46.3923 115.839 48.2153 118.87C50.2657 122.271 54.5961 123.302 57.9349 124.998C62.1731 127.152 66.2884 129.631 70.0985 132.473C72.4292 134.211 74.9015 136.229 76.6976 138.63C78.246 140.704 78.0872 142.101 78.7406 143.358C80.08 145.935 81.9805 148.537 83.6298 150.724C83.8224 150.976 84.0308 151.213 84.2236 151.464C72.4025 152.243 61.7138 161.982 56.6975 172.474C55.4883 175.006 56.6019 176.591 59.4054 176.021C63.2076 175.248 67.398 175.567 70.9841 177.049C63.7867 182.153 67.8234 192.287 64.3573 199.773C63.0244 202.655 63.3038 204.454 66.6042 202.742C74.1939 198.817 84.5114 203.619 89.9174 196.335C91.3122 199.92 91.6095 204.05 90.7877 207.803C90.1488 210.723 90.8515 212.178 93.7566 210.915C104.473 206.241 114.419 195.782 115.673 183.931C116.291 184.446 116.901 184.962 117.53 185.461C118.781 186.46 120.061 187.447 121.422 188.299C122.785 189.156 123.893 189.662 125.257 189.451C136.049 196.19 134.909 211.017 143.625 218.839C149.577 224.177 157.412 214.917 160.431 210.908C170.854 197.086 180.521 175.405 174.454 158.031C179.122 153.784 183.562 149.28 187.72 144.494C203.135 126.753 214.585 105.274 220.189 82.4139C222.376 73.4802 225.715 62.2644 218.538 54.7362Z" fill="#68182B"/>
<path d="M166.62 68.9864C167.513 68.5487 168.515 68.3742 169.496 68.2562C172.45 67.8979 175.559 68.304 178.392 69.1679C180.111 69.6942 181.775 70.3999 183.308 71.3434C184.295 71.9497 187.116 73.491 186.92 74.918C186.844 75.4688 186.106 76.1629 185.754 76.5828C185.128 77.3328 184.415 78.0691 183.59 78.6002C183.276 78.8008 182.9 79.0163 182.54 79.1269C182.01 79.2903 181.978 79.202 181.562 78.824C180.816 78.1471 180.061 77.4855 179.276 76.8551C175.648 73.9325 171.5 71.7595 166.99 70.5637C166.602 70.4241 166.119 69.7732 166.129 69.3372C166.13 69.2269 166.419 69.0861 166.62 68.9864Z" fill="#FF7A0D"/>
<path d="M185.443 57.0542C167.56 59.5852 150.389 65.7855 135.521 76.1581C120.13 86.8989 107.677 101.057 97.4471 116.706C98.5239 116.918 99.5736 117.298 100.547 117.757C104.977 119.851 108.811 123.415 111.718 127.32C113.149 129.238 114.913 131.866 115.5 134.52C118.906 131.419 122.375 128.388 125.812 125.346C130.428 121.461 136.908 120.912 141.645 124.948C146.027 128.684 147.497 134.881 144.98 140.115C143.557 143.067 141.052 145.504 138.871 147.902C136.746 150.24 134.549 152.513 132.324 154.753C132.573 154.856 132.822 154.966 133.067 155.081C137.496 157.176 141.33 160.741 144.241 164.644C145.561 166.418 147.172 168.803 147.872 171.252C166.514 159.387 182.838 144.042 195.09 125.525C202.91 113.702 209.212 100.295 213.221 86.6891C201.601 79.1996 192.199 69.1175 185.443 57.0542ZM185.761 80.3507C184.901 81.0202 183.893 81.6084 182.821 81.8606C181.43 82.1892 180.621 81.5904 179.65 80.7052C175.729 77.136 171.226 74.4697 166.084 73.1058C165.874 73.0496 165.703 72.9595 165.571 72.8457C163.826 71.8577 162.726 69.3315 164.04 67.6347C164.896 66.5251 166.48 66.0661 167.789 65.798C171.606 65.014 175.765 65.5216 179.449 66.6725C181.65 67.3617 183.785 68.3642 185.686 69.6709C187.5 70.9163 189.787 72.644 189.611 75.1165C189.538 76.1499 188.913 76.93 188.299 77.7146C187.548 78.667 186.718 79.6046 185.761 80.3507ZM199.887 107.644C197.91 108.407 195.637 106.661 195.141 104.775C194.603 101.661 193.617 98.6955 192.143 95.8974C191.488 94.6516 190.757 93.4451 189.95 92.2901C189.256 91.2926 187.978 90.1331 187.759 88.9027C187.378 86.7536 189.526 84.5749 191.03 83.3822C192.789 81.988 194.767 80.5401 197.013 81.7467C198.999 82.813 200.286 85.3792 201.179 87.365C202.123 89.4659 202.76 91.7182 203.085 93.9969C203.584 97.4949 203.587 101.466 202.246 104.797C201.784 105.948 201.105 107.173 199.887 107.644Z" fill="#00EBED"/>
<path d="M194.33 84.36C194.946 83.9864 195.235 83.7854 195.898 84.2129C196.682 84.7182 197.24 85.7394 197.707 86.5242C198.628 88.0822 199.346 89.7663 199.819 91.5155C200.656 94.5892 200.903 97.8331 200.448 100.991C200.284 102.114 200.004 103.375 199.511 104.343C199.371 104.618 199.107 105.089 198.968 105.11C198.587 105.17 197.89 104.63 197.791 104.251C197.073 100.101 195.559 96.1477 193.34 92.568C192.849 91.7763 192.332 91.0014 191.793 90.2416C191.525 89.8623 191.249 89.4881 190.97 89.1184C190.662 88.7104 190.413 88.6002 190.518 88.1288C190.865 86.5198 193.039 85.1423 194.33 84.36Z" fill="#FF7A0D"/>
<path d="M78.669 132.272C75.6609 129.22 71.892 126.715 68.529 124.591C65.254 122.519 61.8439 120.661 58.3528 118.976C56.2341 117.953 52.1127 117.133 52.791 114C53.409 111.162 56.3309 109.236 58.5557 107.688C61.0912 105.925 63.8302 104.436 66.6012 103.075C72.9832 99.9476 79.7471 97.5648 86.7019 96.0786C91.6416 95.0253 97.0116 94.2515 102.147 94.8402C104.963 95.1641 105.725 96.0538 103.535 98.7577C101.91 100.764 100.333 102.806 98.8021 104.879C93.4186 112.189 88.5939 119.906 84.2295 127.865C83.5503 129.104 82.8838 130.35 82.2239 131.602C81.0315 133.877 80.3804 134.008 78.669 132.272Z" fill="#FF7A0D"/>
<path d="M84.7869 138.852C87.5795 133.282 90.5882 127.784 93.8368 122.425C95.3732 119.898 96.6823 118.956 99.0457 119.969C100.968 120.794 102.791 122.158 104.22 123.329C107.445 125.977 110.442 129.381 112.15 133.223C112.5 134.009 112.779 134.819 112.913 135.673C112.985 136.136 112.969 136.535 112.905 136.923C107.176 142.28 101.726 147.911 97.0958 154.276C96.598 154.961 96.1466 155.68 95.672 156.381C93.1274 153.532 90.6314 150.642 88.3108 147.612C87.2726 146.259 86.228 144.862 85.3074 143.392C84.1701 141.576 84.0551 140.313 84.7869 138.852Z" fill="#FF2E60"/>
<path d="M98.4607 170.253C96.006 167.851 96.0391 166.511 97.2494 164.375C98.7308 161.771 100.388 159.269 102.173 156.86C109.869 146.468 119.852 138.122 129.486 129.604C132.442 127.112 136.324 127.073 138.924 130.121C141.451 133.081 140.877 136.838 138.603 139.734C134.8 144.574 130.297 148.986 125.887 153.26C118.993 159.94 111.584 166.593 103.095 171.19C101.124 172.253 100.403 172.157 98.4607 170.253Z" fill="#FF7A0D"/>
<path d="M86.3423 154.104C88.3579 156.576 90.43 159.004 92.5707 161.37C92.2266 161.973 91.8521 162.559 91.5283 163.174C91.3204 163.568 91.1578 163.951 91.0137 164.329C81.0785 161.042 70.1242 163.431 61.5827 169.281C67.1054 160.854 76.4122 153.843 86.3423 154.104Z" fill="#FFF18A"/>
<path d="M68.73 192.028C68.9469 186.837 68.4528 181.7 73.1584 178.853C75.1974 177.621 75.3963 176.165 73.2299 175.11C69.5506 173.315 65.1923 172.596 61.0557 173.03C69.2897 166.483 80.4534 163.534 90.557 167.033C90.6041 167.871 90.8194 168.727 91.234 169.65C91.7308 170.755 92.4699 171.912 93.3547 173.004C84.9735 180.824 76.6447 188.706 68.2573 196.519C68.5301 195.077 68.6647 193.583 68.73 192.028Z" fill="#FAC135"/>
<path d="M93.8708 205.06C94.1192 201.364 93.5017 197.553 91.9864 194.267C90.9475 192.014 89.2937 192.275 88.228 194.059C85.4023 198.789 80.0848 198.284 74.9557 198.325C73.1338 198.341 71.3881 198.498 69.706 198.854C78.2291 190.918 86.6865 182.911 95.2032 174.968C96.7673 176.356 98.5995 177.357 100.489 177.624C104.499 187.156 100.114 197.268 93.8708 205.06Z" fill="#FFF18A"/>
<path d="M95.8996 206.792C102.587 198.419 107.182 187.629 103.277 177.372C104.421 176.993 105.538 176.378 106.576 175.732C108.728 177.785 110.918 179.812 113.155 181.777C113.087 192.203 104.985 201.642 95.8996 206.792Z" fill="#FAC135"/>
<path d="M122.883 182.525C121.683 181.652 120.481 180.651 119.435 179.786C116.676 177.506 114.04 175.082 111.442 172.619C112.736 171.742 114.015 170.838 115.264 169.9C119.986 166.354 124.428 162.436 128.693 158.352C129.209 157.856 129.705 157.342 130.218 156.84C132.621 157.5 134.983 159.211 136.743 160.654C139.966 163.3 142.963 166.706 144.669 170.547C145.655 172.765 144.904 173.098 142.771 174.362C140.078 175.956 137.344 177.484 134.564 178.934C132.09 180.225 129.586 181.452 127.058 182.63C124.809 183.68 124.802 183.93 122.883 182.525Z" fill="#FF2E60"/>
<path d="M158.189 204.248C156.756 206.522 155.125 208.658 153.442 210.748C145.888 220.112 142.367 204.805 140.779 201.266C138.872 197.014 136.532 192.581 133.349 189.03C131.839 187.343 131.709 186.703 133.966 185.586C139.979 182.596 145.835 179.239 151.463 175.629C156.867 172.161 162.062 168.41 167.034 164.39C168.861 162.911 170.13 162.435 170.533 165.13C172.511 178.487 164.885 193.607 158.189 204.248Z" fill="#FF7A0D"/>
<path d="M216.041 75.3379C215.821 76.4614 215.584 77.5857 215.328 78.7096C214.637 81.7736 213.559 81.5388 211.305 79.8629C203.743 74.2384 197.314 67.3998 192.184 59.4875C190.906 57.5188 190.464 56.3817 193.271 56.1113C197.625 55.6913 201.888 55.4455 206.358 55.3733C212.469 55.2747 217.944 60.2535 217.384 66.6029C217.129 69.5293 216.603 72.4575 216.041 75.3379Z" fill="#FF2E60"/>
<path d="M144.241 164.645C145.561 166.419 147.172 168.803 147.872 171.252C162.437 161.984 175.55 150.563 186.448 137.193C183.405 139.74 180.239 142.172 176.966 144.509C169.729 149.682 162.67 155.109 153.652 156.531C146.194 157.707 141.013 153.535 139.307 147.428C139.162 147.586 139.016 147.745 138.872 147.902C136.747 150.24 134.55 152.513 132.324 154.753C132.574 154.856 132.823 154.966 133.068 155.081C137.496 157.176 141.33 160.741 144.241 164.645Z" fill="#19BFBB"/>
<path d="M125.253 84.2102C114.464 93.5888 105.294 104.701 97.4472 116.706C98.524 116.917 99.5737 117.298 100.547 117.757C104.977 119.851 108.811 123.415 111.718 127.32C113.149 129.238 114.913 131.866 115.5 134.52C118.419 131.863 121.381 129.257 124.334 126.651C123.04 126.204 121.762 125.667 120.511 124.955C116.288 122.547 113.671 118.518 113.027 113.745C111.758 104.334 117.912 94.4599 123.054 87.1389C123.755 86.1401 124.513 85.1808 125.253 84.2102Z" fill="#19BFBB"/>
<path d="M166.94 70.5318C166.957 70.5404 166.973 70.559 166.989 70.564C171.5 71.7595 175.648 73.9329 179.276 76.8555C180.061 77.4859 180.816 78.1474 181.562 78.8243C181.977 79.2023 182.01 79.2907 182.54 79.1272C182.9 79.0163 183.275 78.8008 183.59 78.6006C183.863 78.4238 184.109 78.1965 184.361 77.9813C179.441 73.6597 173.382 70.5596 166.94 70.5318Z" fill="#EF6200"/>
<path d="M122.149 151.064C117.875 154.617 113.25 157.699 108.517 160.599C105.247 162.602 100.942 165.079 96.8674 165.111C96.0699 166.846 96.3023 168.138 98.4605 170.253C100.402 172.157 101.124 172.253 103.095 171.19C111.584 166.593 118.994 159.941 125.888 153.26C130.297 148.987 134.8 144.575 138.603 139.734C140.625 137.158 141.288 133.903 139.632 131.13C135.704 139.01 128.939 145.422 122.149 151.064Z" fill="#EF6200"/>
<path d="M153.442 210.748C154.795 209.067 156.086 207.334 157.296 205.545C154.344 207.267 151.086 207.488 148.444 206.134C144.072 203.891 144.195 198.836 145.514 194.864C149.149 183.934 160.574 176.288 164.946 166.033C163.163 167.43 161.359 168.803 159.524 170.132C156.893 172.036 154.204 173.868 151.463 175.628C145.835 179.238 139.978 182.595 133.966 185.585C131.709 186.702 131.839 187.343 133.349 189.029C136.532 192.581 138.872 197.013 140.778 201.265C142.367 204.805 145.888 220.112 153.442 210.748Z" fill="#EF6200"/>
<path d="M191.792 90.2416C192.332 91.0014 192.849 91.7766 193.339 92.568C195.559 96.1474 197.072 100.101 197.791 104.251C197.813 104.337 197.872 104.433 197.947 104.527C197.977 103.25 197.914 101.967 197.761 100.656C197.143 95.4627 194.557 90.6373 191.632 86.3474C191.089 86.8902 190.656 87.491 190.518 88.1288C190.413 88.6002 190.662 88.7104 190.97 89.1184C191.249 89.4881 191.525 89.8623 191.792 90.2416Z" fill="#EF6200"/>
<path d="M68.5293 124.591C71.8919 126.715 75.6611 129.22 78.6693 132.272C80.3804 134.008 81.0318 133.877 82.2246 131.601C82.8845 130.35 83.5506 129.104 84.2302 127.864C88.5946 119.905 93.4193 112.188 98.8028 104.879C99.1553 104.403 99.5342 103.946 99.8899 103.473C95.5657 105.774 91.3265 108.329 87.0561 111C81.0698 114.744 74.7031 120.098 67.1235 118.302C64.3639 117.649 61.7103 115.981 59.7133 114.012C57.9335 112.258 57.4442 110.292 57.6612 108.311C55.6097 109.75 53.3298 111.531 52.7917 113.999C52.1134 117.132 56.2348 117.953 58.3535 118.976C61.8442 120.661 65.2543 122.519 68.5293 124.591Z" fill="#EF6200"/>
<path d="M211.305 79.8629C213.559 81.5388 214.637 81.7736 215.328 78.7096C215.584 77.5856 215.821 76.4617 216.041 75.3379C216.603 72.4574 217.129 69.5292 217.384 66.6029C217.59 64.2906 216.985 62.1643 215.848 60.3946C216.512 65.6295 215.309 71.6761 209.125 71.9138C202.942 72.1533 195.762 61.8892 198.171 55.7347C196.539 55.8429 194.914 55.952 193.271 56.111C190.464 56.3814 190.906 57.5185 192.184 59.4871C197.314 67.3998 203.743 74.2384 211.305 79.8629Z" fill="#EA0F4D"/>
<path d="M89.9513 129.159C88.1612 132.361 86.4226 135.587 84.7869 138.852C84.0551 140.313 84.1701 141.576 85.3078 143.391C86.2284 144.861 87.2734 146.258 88.3112 147.611C90.6318 150.642 93.1279 153.531 95.6724 156.381C96.147 155.679 96.5981 154.961 97.0962 154.275C97.2019 154.131 97.3176 154 97.4229 153.857C96.3144 152.273 95.2607 150.65 94.2946 148.99C90.5143 142.498 89.1672 135.965 89.9513 129.159Z" fill="#EA0F4D"/>
<path d="M127.057 182.63C129.585 181.452 132.089 180.225 134.563 178.933C137.344 177.484 140.077 175.956 142.77 174.362C143.006 174.224 143.212 174.1 143.415 173.981C133.866 176.958 123.788 176.123 114.479 170.457C113.477 171.191 112.472 171.922 111.441 172.619C114.039 175.082 116.675 177.507 119.435 179.786C120.48 180.651 121.682 181.652 122.883 182.525C124.802 183.93 124.809 183.68 127.057 182.63Z" fill="#EA0F4D"/>
<path d="M63.9766 167.782C72.1147 163.054 81.9824 161.341 91.0133 164.329C91.1575 163.951 91.3204 163.568 91.5279 163.174C91.7502 162.752 91.9982 162.347 92.239 161.937C82.8745 159.467 70.2406 161.188 63.9766 167.782Z" fill="#F3AF79"/>
<path d="M93.3459 180.462C94.4039 179.404 95.8825 178.028 97.3219 176.475C96.5816 176.052 95.8645 175.555 95.2031 174.967C87.7273 181.939 80.294 188.953 72.8285 195.931C80.3272 191.607 87.1116 186.701 93.3459 180.462Z" fill="#F3AF79"/>
<path d="M73.25 191.842C79.9521 185.565 86.6386 179.268 93.3544 173.004C92.947 172.502 92.5809 171.983 92.2443 171.465C89.3691 174.008 86.6443 176.744 83.9715 179.41C80.1228 183.251 76.4358 187.383 73.25 191.842Z" fill="#FFA222"/>
<path d="M104.728 192.461C106.764 188.508 108.983 182.26 108.252 177.272C107.698 176.752 107.126 176.255 106.575 175.732C105.537 176.378 104.421 176.993 103.277 177.372C105.726 183.804 104.83 190.446 102.174 196.573C103.101 195.274 103.976 193.922 104.728 192.461Z" fill="#FFA222"/>
<path d="M162.22 197.388C167.545 187.639 172.116 175.822 170.533 165.129C170.201 162.91 169.274 162.857 167.942 163.73C171.835 165.731 168.813 177.747 168.234 180.204C166.811 186.214 164.621 191.836 162.22 197.388Z" fill="#FFB85A"/>
<path d="M101.665 157.586C107.129 152.089 112.604 146.596 118.177 141.209C123.834 135.743 129.572 130.498 136.967 128.53C134.597 127.238 131.77 127.681 129.486 129.604C119.853 138.122 109.869 146.468 102.173 156.86C101.996 157.097 101.837 157.347 101.665 157.586Z" fill="#FFB85A"/>
<path d="M68.981 101.997C75.6313 99.9596 82.2504 97.8267 89.0859 96.3826C92.1134 95.7432 95.1973 95.2535 98.2949 95.1967C99.4873 95.1757 100.675 95.3145 101.855 95.4593C103.744 95.6906 104.24 96.6887 104.154 97.9153C105.517 95.8669 104.645 95.1282 102.147 94.8399C97.012 94.2512 91.6419 95.025 86.7023 96.0783C80.5988 97.383 74.6606 99.4143 68.981 101.997Z" fill="#FFB85A"/>
<path d="M179.838 89.724C175.134 84.0942 168.02 79.9993 160.528 80.5946C151.194 81.338 135.872 91.2651 142.44 101.95C143.913 104.344 146.939 105.631 149.31 106.872C153.903 109.275 156.45 112.808 157.378 117.892C158.429 123.662 158.524 130.015 165.1 132.099C170.518 133.816 175.957 129.962 179.674 126.505C182.281 124.083 184.925 121.15 186.487 117.932C189.838 111.049 188.339 99.8972 179.838 89.724Z" fill="#6CFFFB"/>
<path d="M108.924 135.923C108.825 137.886 108.418 139.866 107.854 141.841C109.509 140.173 111.188 138.529 112.906 136.922C112.97 136.534 112.986 136.135 112.914 135.672C112.78 134.818 112.501 134.009 112.15 133.222C110.515 129.546 107.698 126.279 104.635 123.683C107.284 127.46 109.121 132.012 108.924 135.923Z" fill="#FF6699"/>
<path d="M132.169 161.09C134.759 161.181 137.235 162.049 139.596 163.291C138.682 162.349 137.726 161.463 136.743 160.654C134.982 159.211 132.621 157.5 130.218 156.84C129.705 157.342 129.209 157.856 128.693 158.352C127.264 159.719 125.808 161.056 124.337 162.378C126.926 161.534 129.54 160.999 132.169 161.09Z" fill="#FF6699"/>
</svg>
